<mxfile host="app.diagrams.net" agent="Mozilla/5.0 (Windows NT 10.0; Win64; x64) AppleWebKit/537.36 (KHTML, like Gecko) Chrome/131.0.0.0 Safari/537.36 Edg/131.0.0.0" version="26.0.9">
  <diagram id="sEn3A4tmL1a5i2TBeTXZ" name="PÃ¡gina-1">
    <mxGraphModel dx="896" dy="575" grid="1" gridSize="10" guides="1" tooltips="1" connect="1" arrows="1" fold="1" page="1" pageScale="1" pageWidth="827" pageHeight="1169" math="0" shadow="0">
      <root>
        <mxCell id="0" />
        <mxCell id="1" parent="0" />
        <mxCell id="NefAcdebUp0YX1UbjI-h-2" value="" style="shape=image;verticalLabelPosition=bottom;labelBackgroundColor=default;verticalAlign=top;aspect=fixed;imageAspect=0;image=data:image/jpeg,/9j/4AAQSkZJRgABAQEASABIAAD/4gIoSUNDX1BST0ZJTEUAAQEAAAIYAAAAAAIQAABtbnRyUkdCIFhZWiAAAAAAAAAAAAAAAABhY3NwAAAAAAAAAAAAAAAAAAAAAAAAAAAAAAAAAAAAAQAA9tYAAQAAAADTLQAAAAAAAAAAAAAAAAAAAAAAAAAAAAAAAAAAAAAAAAAAAAAAAAAAAAAAAAAAAAAAAAAAAAlkZXNjAAAA8AAAAHRyWFlaAAABZAAAABRnWFlaAAABeAAAABRiWFlaAAABjAAAABRyVFJDAAABoAAAAChnVFJDAAABoAAAAChiVFJDAAABoAAAACh3dHB0AAAByAAAABRjcHJ0AAAB3AAAADxtbHVjAAAAAAAAAAEAAAAMZW5VUwAAAFgAAAAcAHMAUgBHAEIAAAAAAAAAAAAAAAAAAAAAAAAAAAAAAAAAAAAAAAAAAAAAAAAAAAAAAAAAAAAAAAAAAAAAAAAAAAAAAAAAAAAAAAAAAAAAAAAAAAAAAAAAAFhZWiAAAAAAAABvogAAOPUAAAOQWFlaIAAAAAAAAGKZAAC3hQAAGNpYWVogAAAAAAAAJKAAAA+EAAC2z3BhcmEAAAAAAAQAAAACZmYAAPKnAAANWQAAE9AAAApbAAAAAAAAAABYWVogAAAAAAAA9tYAAQAAAADTLW1sdWMAAAAAAAAAAQAAAAxlblVTAAAAIAAAABwARwBvAG8AZwBsAGUAIABJAG4AYwAuACAAMgAwADEANv/bAEMABAMDBAMDBAQDBAUEBAUGCgcGBgYGDQkKCAoPDRAQDw0PDhETGBQREhcSDg8VHBUXGRkbGxsQFB0fHRofGBobGv/bAEMBBAUFBgUGDAcHDBoRDxEaGhoaGhoaGhoaGhoaGhoaGhoaGhoaGhoaGhoaGhoaGhoaGhoaGhoaGhoaGhoaGhoaGv/CABEIAd4B4gMBIgACEQEDEQH/xAAcAAEAAwADAQEAAAAAAAAAAAAAAQIDBQYHCAT/xAAbAQEAAgMBAQAAAAAAAAAAAAAABQYBAwQCB//aAAwDAQACEAMQAAAB6x9Mfl5QIuM42GcXJhQnRiTrFCSwzjYZNBVBN2Q1Zi0SKNRk1FEE2ZE6shfHhdmnn3Se1e9X78o20dbNJJQnRiTrFQWGbUZxc/N81/TnGHxw7C9Y+uYm3nLJsMliSg1YjVUiVhm1GTQVQNGI2ZiZCjUZRqKgszI1jqW3R2HpvSvx2Gqfv/BEy8E7T1TbVt97p1TmadfuUcZbXt/fpm8ba9K/f5XN13uvcPGdO+L98p5x6FXrV+rJfm7kIGjM/I/eIznQZTYFBqxGqoLDNqMmgrNRoxGzMSkUajJoKoJszGrI4HyL2Xxuy06sJm66qsTVIK4TpWmM/u/fwka9+maduhVbOHK8RbXt9q5Tw712q3XktWUbMxsoXVFspsCg1YjVQksMp1GTQVmo0Yk6sxMhRqMmgqCzMjZkLhXyH1fx+Yr3FUWtFNQkFRaaCyASKrMzRZgQR6P0f2GFsP7dmdZuSVyVBMKDViNVQWGbUZNBWajRiNmRMpFGoxnQVBZkNmQugZ26ht5uv9Qmbn89Qno5xUWfo8+vy27ZynDI+fPRfwPfSq8rxnZHKrbNRATNDvvovj/rVSvF5WjJtSNQCl2I1VBYZxsMmgqgaMRszEpFGoyaE0BZmRsyFp/Dnx+2vWP07+blfFewdWsNUQmXgxUb29U4JLgu8fqrVrpErc/azamfWOzX2aPEuN9z8nstP4OVZeDWQT6j5dy/BJ+0UpvTr/OcaMwuMrzQFhlOoyaCqBoxGzMSkUajJoKgszI2ZC6CPH/UfFpys51i1kqaEsCovHPat/ce4VUn6HJfV0xm1GS4hA/H+/LPjxD8fpPmty+fJO3gRFsPYea8p9Jp195KPz68Mpdc9ZpkZTqMmgqgaMRszEpFGoyaCoLMxqyFwiGh1/xz1Py600pCZeBFReKj1HzH2aGn+XLVi6M2oyXEIGjIjaKH5fEvdvHZys8LVayVJVZlNWH6vRvMOzR0t60hUb3Oc6MsmgiIGjEbMxKRRqMmgqCzInVkLoELk4zqdN8v9T8ttVIFZaDXUFkGvtvh/tMDZuXya122slwiBoxGzMSsR5B635BL1/g6rWmmoGEqjsvXOy8vb60hSvod8pvj2qgaRkNmYlIo1GM6Cqhe35Kn6NmQugmrQYthmk4vx33f8UlD+Gz7P1GXgeh2RLwYlh6l5X2iOlfWs40qF9QhloxGzMSsRRqfm8P9I8vslPQTlcSqLKjuPUPR4+V72op9+tSajRiNmYlIo1GThDk+g+M8Ud86vxg/Rb8o999G+b/o8mq4ybDN1Y7VPhfbj0PX82hEa1efD/w956Pdvnaq3VxlbYet9j8O9Zql25bVjFzjaKCVhm1K/jv5j2R3E8YXGgpV961n6fPr8lvSJjZfzf2P8HaoqbuhET9bMRszEpFGoyaE+aekdbPmCZEAA/Z9VfJHfz6Hy8n5g9Ep1/lyvzD33ykmJHM+1fPg+wZ8P9sPx+Le79DmK95/Va0U1EwP2fkr59eodu8E5ODsftM+ecnFTfcadU/J59d54Xz3gJGK5ngSfrCVdulZUn0rp3sMDZdqNa7bmTQJGejMSkUajKNRUGc+Unkf4rVAAEoESK8h+EACBIR7D496qe4cTyPnfVwdJhF1+eLRXOFkCQVWZVWEDCVRZBH6/wA/qnDI8hy69Pvtso287YiskrjKbQKOvjovk/4T6o5r5H9aPXuG614ac31KJAACYCYAABBIEqn7vp3zb2I47xP3fyKdrHBWUsdTWQJBVcUWZQMJVF4qTIa+1eH+jQ0/3zJpWLookXihZYVpa5+X5m9D8ZJAiREgAmAAmAAAAAAB6B7/APIHsp65+f8AVm8+T9c986HYqp59OuU7WlXY9W7icvbtIOyeER7P+Po5vI59ax9avKbfv46VhZk9+EJHbMfTYSxfuzTWriszGrM0VFvw/q6eeAcbEgEwABMCYBp6Mebct9D9gPnPX6OyPmfgfrr8B8lPefIzgprIAA0zH0x2z5f9iO9z5H1U906Jw3svVH+S+kchp68zU45JZkTqzOoeY+9dFnax5+9B7L2cHm3eeybQ1grCY+VWZsxsyGiC6gtxnID5e679d+RnkLbEAJgSgcpn9JH4e3TQashoqC5H4v06nhHmP1/4meWIkAAhMEpgj6M+dPQT6DqCzInVkLoFWoxnQUSLMxqyGioLkqiJZjVieBee9p6sTAEwDth6r6FQNWQ0VBYZtRkuMNoPmXrH0Z85EgAJgAcjx0n13+jhuUGzIXBRqMmpFEizMashoqC4yjYApdkMP1cSfMH4oBMBMEe6+GfTx2HVkNFQWJyajJcQgaMTP5b+rfn089AlAAJIR+o+kO2cTyIuEVajFqTmkWZE6shoqC4xbClbkrDK3H+Xnr/SfJerH5LAlABr9X/J/wBVHJaKguRm1GS4KjRiTpOY8W9q8UPKJgACDTu9foc8s71z+QugmjUZRqTmkWZjVkNFQXIybDJcTFSyw8D81770MASgAAfTfzH7SetFhlOoyXEIGjEazmJWHzr758snHgAmEHp/u/knqwuCjUZRsM0izMjZkNIgFicWwyXETUaMzRA8K8x918IJTAABMA5/gIPr63lPrgyXEIGjEbMxKwzfkOjeBczw4ABNZk+ju6dV7URVqMmpFEizMashoqC5GTYZLiJqNGJOiC6g4n5X+vPnk6IQSrJIACYNvoX50/QfXbzD0ovoxGs5iVhm4o5H57x6YJAASISch7N4RB9hV8U9wFEizMashoqCxOM6jJcFRoyI1VBclUOI5ah4zy3quR13iu91PkHP1TyomUAADtfVJPfO6fJu59b2+VdD6i6985/gPV/NPyAAASISREgQd2+jPNvShZmNWQ0iAi4ynUZTYRNRoyGipErDNqAUuxJ0VBc/J83fS/FnynP6vyAAkgACYAAAAkQglpkSBznDfRZ239LMashoqC4xbDJcQgaMRqoSWGbUUroFhleaAsM2o4XlfBDon5EgAACUAAEwAkVcwcX7N2PvJwnkfuOp8fU+nfzHVvWFBqyGioLE4zqMlxE1GjEnRUiVhm1GS5MQJXGabEZtRkucJ8sfW/zIcEAAA5mxwjTAuiQASKzB3n3zy/2EZRqTmkWZjVkNFQWGcbDJcRNRoyI1UErDNqMlyaoJvFC6RGc6DJcRNRxfMYnzZ1L6/wDKjxZyPGk8vw/0Idy/TbQ4ngu4jz/xv6m8nPE0WETAB3f6J+VPq4miRZmNWQ0VBYnGdRkuCo0ZDRUiVhm1GTQVCNGRGyhdUWyrqImo0Yk6sxKx+Lovoep0DvE6ioLMh17s/wCc+QZ9L6icE7N2E83/AHe2d9PO/T0izMashoqC5GTYZxcRNRoyGk0BYZNhk0FQWZjVmLQLvDhyHr/xP7hl7NophTWalZXIznQZTcVtUWmhTZUpdJWl7lc7aDO0C00K6qFdAqXGNtBlaRFqDRQprNSE2IztcZXkVtUi80K6qlZmSPJPzeF5UGcf/8QALhAAAgAGAgEEAgEEAwEBAAAAAAECAwQFEBExMgYSEyAhFDBAFRYiMyM0QSQl/9oACAEBAAEFAvHLBFeJ9NSyqOS2LHOGxIbFjnDYkNi+8b2IbFjnDYhsWOcNiQ2c43vDehY5w2JDYvvHOGxIZzhsn00qpleS+POzzi20Mu3UbYljthsS0NiW8dsNiQ2a3jkSGxLHbDYlobEt45w2JDOcN7HHDLJ94ppIvIJXqp6qCpg7YbEhsS3jkQ2JDO2G9iQ3oraKCvpZ1nqpM5sSx2w2JDYljsIbEhnOORIbEsdsNiQ2Jbx2ENiQznE6ogkqqvqROrZ0/Nlq/bnjYkNiW8NldevajleQRwukuEmpNnOG9iWhvQlh00ET1jthsS0NiW8dsNiQ2c4f2JDYljthsSGxLeO2GxIZycFwvEMgn1Uyoi+EETlxUV4lTJf59Mj+o0xDVyIyGZDEP7LtcFTy4ovUyGNwOgvbhJU6CdC3sS0N6EscmsdsNiQ2Jbx2ENiQ2c4b2JDYljthsSGxLeORDYkNnOLvUuTSv7f6VG4RVc9H9UqPTMmRTH8KOvmUsdFWS6qBvQljtnnDYkNiW8dhDYkM5xyJDYljthsSGxLeOcNiQznDey4035FNEvS/4VNVR0syhqVVyjtjeWxIbEt47CGxIbOcP7EhsSx2w2JDYlvHIvobEhnbDexLRFxd5HtVX8Px9RejthsSw2JDYlvHbDYkM5xyJDYljthsS0Ni+8ciGxIZzhvYkN6I41LhuNT+TUfwqWndTOpqdSJY2JfBsS3jsIbEhnbHIkNiWO2GxIbEt47CGxIZzhvYlobOFeLi58f8Px2FRMbEhsWG9CW8dhfQ2JDZzjkSGxLHbDYlobEt45ENiQznDexLQ2JF7r/ag3v5yqebPJNinRkPj2j+3UTfH44SdbqiV+i01n4k5RepJDZznWO2GxIZzjkSGxLHbDYkNiW8c4bEjg5xvYkNiRUzlIk1E51E74y5cU2KhshLkS5SbEsckUKiVZaJVSVVBMpIvlZKz3pTOccmsdsNiQznHIkNiWO2GxIbEt47CGxIZzhvYloqaqXTQq+Up/WqXVzuv5fylSop0dutsFNANiQzthvYloqJEE+C4W+KkmfG3VDp6mD/ADRyJYf2IbEhs7Y5ENiWO2GxIbEt45ENiQznDexIb0rpVOfUfNc2eg9mWhsSH9HOG9iWhvQkVVPDUS6qQ6ed8EWqep1K/sX0by2JDOcciQ2JY7YbEhsS3jsIbEhnOG9iWhsqo/bkTH6pnztNL+RUQr0psSxzhvYlobEsdi+0iil/G03H8WOCtkRHvwMSw2JDYv8ALD+xDYljthsSGxLeORDYkM5w3sSGxIu8WqLn9Fhp/bktiWOcN7EhsSx2xUw+5Kmwe3M+KjcJDUToSzXB1EOxIbOcP7EhsSx2w2JDYlvHOGxIbOcN7EtDehLF9i/+f5pfduh9FGkM5w3sS0N6EsdsNmvq6w+mt+dieqwbOcP7EhsSx2w2JaGxLeORDYkNnOG9iQ2JY7F+/wBHzg/2Uf8A1znDexIbEsdsNiQy9f8Ae+dk/wC4a3h/YkN6EsdsNiQ2L7xzhsSGc4b2JDYljti/LdP84fqK3x+qk5w3sS0NiWO2GxIbxd3uu+dj+6zHIkNiWO2GxIbEt47CGxIZ2w3sS0NiWO2GyupvyKabJjkx6fzsc73acb2JaGxLHbDYkNnJOj9Eqome7O+fj8H/ANQxLQ2JY7YbEhsS3jkQ2fUJFVSYSColzWN7EtDYljthsSGyKmlzSK207LnZ4YYOPjZqr2J+9mtDYljthsSGznF7q/bk/o8eg/4sNiWO2GxLQ2JbxyTqmTTQ13l9PIKnyusnOdcaqc/yJ7IaqogfjN5ir5SQ2JY7YbEhsS3jkjg9UFZKcmf8FFp2mtVRJbEsdsNiQ2L7xPnKVBW1X5U7PPwX27ZT+xTDYljthsSGxLeOxdrhDbaOtuE+vmfHxio9i5OISx2w2Xa8ybTB/e1R7lF5ZS1DlT5c6HkQ2X6l9MXxpqmKlmUNbBVyzthsSGznE2aoIbpcvyYvjTyIqmZJ8fgUMfj8plJZJdPHwbNY7YbEhsS3jnHmMLdB8qOd+PVUsXuyDthsqZ0FLIudfFcavFDdKmgitHk0isPUJFbIVRImy3KmfGRUR00dFepc4hiTTYlo2c4q7jJp1W3KZVP5WKj9uBvQlvHOe2GxIbEt45F9DZeqb8i3P6i+Vr8onUEteaymSfL6OMl3ujnENRJ9PlV5hn/FbTsPk0UlwTYZkHJfKH6+PJwSLjPp3J8gaS8hkMd+kEfkUGqi8z544nF87bRurnQQqVAlvHbPOGxIbEt45OBsSJqTl1kKgqv08NVtSof/AH5eI3KZMZXxL8f/AN/hSJEU+ZQUcNHK1jtjeWxIbEt47CGxImTYZUN68olqFv1RfwvDaKNzmy83D1P+Elt2qhhp5KWO2GxLDYlobEtlzvVPbIf72lOOgulNXwNiRcbnJt0q7X+fco/4dHSx1lRb6SGipq1uXSxROKL+FLi9EyjiU2QdsNiXwbEtl4uku2U1ZVzK2cU9TNpY7V5dBqu8qpJEqurptfO/ieHUULhSJsKjguFvjppv8Ow1e4e2GxIbF94bEtlRPhp5N5uUdxq/5XjN5VBNUxRQpE+RDPguFrjpn8ZdPMmkcmOB6/XYZMUVSNiQxfeNmseX3T0r+Z4tfPXjsRQKNXCybI5UUqLFqofyp0EqCBORBETLfIiHZaaIVkpYSbZZEyGrpYqSb8aG0TKmKmpoKaBsSGxfeN7NYqJqlSrhVOsq/wBsMMUZJtdXPIPF7hGPxK5Im+PV0pTKadKf6ZUyKTMsdyVypBsSKmilVCqbDMhcqzT44qSmVPLQ2JDO2L5S+7JxDC4imtU+oKSzypAoVCmxIYvvHIlh/Z5PHFJtH7IJcU2K2eIzqgpLHR0cMEOscmifTSZ6r/Eaeeq+z1Vui/RZrtHa6j+7rd7dT5pBCTvLKya7V5bFFOhaih5w2JY7YbIpajgqbAnFJ8dRJttPINYbEhs5xyJG811PDV09ytFRbpn6qCgnXCdaLBJtsHAlvHIhsSGTZEFTDffGIqf9Os70/G6/8yhQ2JY7YbEhsSx2w2JDYvvD+xIbEsNiRPkS58F38TbJsqOTH86Kjjrp9ptcu207YlvHIhsSxziL/M8lsHsxfr8SrPZr2xLHbDYkN6EsdsNiWhnOORIbEs6Gc48vgggrvn4xaPw6dsS3jkQ2JDO2G9iROghmy75bHbav9VBO/Hq5L9Uvg7YbEhvQlvHY4GxIbF94f2JDYljnDOcOI8hn+/cvl47Qfm16SghS3jkQ2JY7Yb2JaGxI8ltyrKH9S7WyZ7lD2w2JDehLeO2GxIbOcciGxLHbPOG9lQ/bp62P3Kv5eH0vtUqW8ciGxLHOG9iQ2JYmQ+7Bdaf8a4fp/wDfH/8AK2DYkNiWO2GxIbOcciQ2JY7Y2aw3sS0XSL0ULfqfxS9UVjkezbTkQ2JY5w3sSGxLHbHl8r26/wDTT08dTOt1N+JSNiQ2Jbx2OBsSGznHIhsSx2w2JawxLQ3o8ir5dNQr5Sv91EvTS8iGxIZzhvYlob0JY7YbPNIP+T5QwuOKl8Uq6iGk8LlQFFZ6SgGxLQ3oS3jthsSGznHIlobEsdsNiWauslUMqp83g3UeUV08nVE2oi+Ur/dQxeulQ2JY5w3sSG9CWO2GxI81j/5vl4tTwzrilhvYkN6EsdsNiQznHIkNiWO2GxIbEseY1ccdZ+nfpfj0/wB+1tiRwdsN7EtDYljthsSGeVz/AHrh8vDJfrqRsSGxLHbDYkNi+8ciQ2JY7YbEhsSxs8uX/wCn+rw2t9UtI4OcN7EtDYljthsSG9E+Z7Umvn/k1vy8Kk+mW2JDehLeO2GxIbOcciQ2JY7YbEhvQljk0eaStVn6rNXfgV0uYpkvnDexIb0JY7YbEhs5PLLl+NS/Lk8bp/ZtqQ2JY7YbEhs7Yf2JDYkP6O2GxLQ2JY5FjzKncdD+vxW8e5AN7EhsSx2w2JDejkq6qCjkXSvjuFX8oXqKw1cuooGxLHbDYkNnOORIbEsdsNiWhsSx2xvFzp1U0c2W5Mz9UmdHTzLHfILjJSG9CWO2GxIbOSdOgkQX++xXGd+ikr59DHaPKpVWQxqOHthsSGzW8P7EhsSx2w2JDYljsIbEsRfZ5Tb3SVmN/pkT46aZZfKYKiGBqNHbDYkNnJXXORb5d5v825Rfr8Uu8z30NiQ2c45EhsSH9HbDYlob0JY5F9DYl8LhQSbhJmeFReun8KpUU9lo5BeLBIqqeZLcqZ+i3eQ1dvKLyymqSVcKWavdhYmkR1MqWVF9o6cuHmUcan1U2qj/AGeKyIptzbEhs5xyJaGxLHbDYlobEsciGxIbF94bEt45ENnlVmcuP9OiCbMlkNyrIR3auZHW1Mwf2/3eJ0H49IkM1vD+xIbEsdsNiWhsSxyIbEhs5zrHIhsSKiTBUSr3aY7bUfy7RQuvrJEmGRKbOcciQ2JY7YbEhsSx2w2JDOccmsciWhsSxyXGhlVtNVSfxqj+LFBHAswQRTI/HrRDb6ZvRzjkSGxLHbDYlobEsdhDYkN6OcP7EtYf2IbEhnOLlWw0dLUznUT/AOHBBFNisPjCgU610k6XdPFJkojgilNf5vxrx/2jg1vHIkNiWO2GxLQ2JY5w2JDZzh/Yloby2JDOcRM8qun5M/8Ah0Ntn3COzeOybdCdjRXWSjr3SeN0NLH1XOORDYljthsS0NiWO2GxIbOcN7EtDYlhsSGc4b2XWNyaBxua/wCF49ZoblMpqSVSwHbDYkN6Nbw/sSGxIf0dsNiWhsSx2ENiQ2L7w/sS0NiWNmsc4b2JFVKU+RdrbNttT8qS1VNaqi0VdMOXHCepfp8Kmr0HbDYkM5w/sSGxLHbDYkNiWOcNiQ2c4b2JDYljk1jthvYlobEivt8m4SbtYp1tj+FsoYrhV0lLBRyIv8yba6ScpnjVtZN8So44bta47XUfLxWp9i5dsNiQ2c4f2JDYljthsS0NiWO2GxIb0L7w3sS0NiWO2dbw3sS0N6EsdiZKgmwXXxKCN1dDUUT2cvxi0/hUz+xDYkM8ypvcp/lbFH+euGxIbOcciQ2JD+jthsS0NiWORDYkN6OcP7EtDYljtjeW9iQ2JY7YbEifTSZ8NV4hSVEVv8VpKKMSGxLHYvtP79u16fjT0k+qi8e8cdHG2JDZzjkS0NiWO2GxLQ2JY5ENiQ2L7w/sS0NiWO2GxLWFEo0kN6EsdsNiQ2c43sQ2JDO2JkKmQ3jxefLnf0atIPHrjMKfw6qjKPxCmlOnopFLC2JDZzjkSGxLHbDYlobEsc4bEhsX3hvYlobEsdsNiQ2oVP8AMoIZ/h9/U6U2JY7YbEhsX3jkS0NiQzthsSGKE+kdsNiQ2c45EhsSx2w2JaGxLHYQ2JDOcN7EtDYljthsSGzy6/qlkkMTgi8e8smToznDEsc4YloYljnDEh55wxLHOGJDEsa3hiWNY5wxLGsMS0M1jnDEhnkXlcdNMjjimxH/xAAtEQABAwQABQMEAQUAAAAAAAABAAIDBAURMRASIUBBEyAiFVFhcUIyM4CBkf/aAAgBAwEBPwHs3zRxj5HCiqoZThh7yadkA5nlVN3fJ0iT5HPOScqmmMEoemVUL25yhNEfKyCrlcDEfTiPXyoLtNEfl1VNVxVI+J7a9B/qD7cNcOq5jnaFRMNEokkrSjkdEQ5pwrfXCpHK7fa3lzPSA8rXHa3w0tcLPA50nqfbtKicU8ZeVUTuneXu4tY6Q9BlNttS/wAJ9sqWjWU+J8R+QwtcNq0yMdAGjx2TnBgyUKyA/wAgrpWCd3Kw640dE+rd+AoKSKnGGjjLBHMMPCr7aaf5s0trat9QaeYfYrOexvUxDQweVrhtQxGaQM+6ghEEYYPa5oeCCq6nNPNy+OGiqGrZLEMnqgQewvLszD9LXDas0YdMT9vfeowWh60tIEjyrdUSNnAJ6HsLx/fytra2rIfkR770cQj9rXDaoutQ399hXW8VZBB0p7TNE0uznC88LZMIZx+Vv3XmcOeGDxw2tq2M56kfjsSMhVkRhmLVpDIKt1c2ZvI7ftrKttMz8p7zI4vd5W01pkIAC+k1GNK20DqYlz99ldqX1Weo3wtcGPLTkHGFS3ggYlH+0240zvKdcKZv8lU3lo6RBSyvlPM85W1tWilyfVcP12ldO2GEly2Vtb4aWuG1tUNKaqTHgKONsTQ1vaXmKRwDx4W1vhpa4bW+FnnEcpYfPauaHDBVdaiCXxf8TgWnGFDEZXhjfK+iDl2nWWUaK+jT42E9hY4tIwRw2rbQSc4leMdvPQw1GwqWhipjlvsudvfK/nj87UVnmf8A1dFTWyGDr5XQf5b/AP/EAC8RAAEDAwIFAwMDBQAAAAAAAAEAAgMEETEFEBITIUBBICJRFTJCI2FxFDOAgZH/2gAIAQIBAT8B7Nsb39Gi6kgliHuHeRxuldZoUGmsZ1k6prGtFgLKaPnMLU+CRhsQuW8ZG1BR8z3vHRTabE8e3oVPTSQH3DttLLeA2ztnawVh8IwxnqQEAGiwWU9gkbYi4VZRmA3GO10trubcYWd8b5WdtSmaGcHntIYjM8NChhbCwNG7nNYLkp1dTtOU3UICcpj2yD2m++FqLHCYk+eyALjYL+mmH4lafSmIcTh1O9VVtph8lTVEkxu47xyviN2lUdcJhwuysLCrYOdEfkdlpcQLi/4Wd5XiJhcfCllMry4+kOLTcKknE0QPnbKq6d0cp6dFa2ew0ttodsLC1R5EQHz69Kks8tWVldCq2FjoSbdR2Gmf2LbY21a/C316WP1j/CzthVXSE/x2FJWGmuCOii1KOR1iLX3r4ubCf2WPVpcRDS874Ve7hgP79lSyiWIOWVkKupOU7jbj001M6ofZMYGNDR4WESGC5X1KAGyrqwT+1mOy06o5buA4Kzs5rXCxF1UaZfrGf9J9FO38UKOc/ioNLcT+oUyNsbbNFlhYWpVFhyxnz2lLE6WUALAWFjbKzvhVdQKdl/nCc4yEuPaaXI1pLT5WFjbKzthY21OIvjDx47UGypNRH2yf9QIcLgqWRsTS4+F9WN8IarHbqCvqkKY9rmgjzvXVrOAxt7eGrlh+0qerkqOh9FBWtjbwPKk1OJv29VPXSzdMBZ/y3//EADcQAAECAwUGBQIGAgMBAAAAAAEAAgMRIRASICIwBDFAQVFhEyMyQnFSgRQkM2JykTRQBaHBU//aAAgBAQAGPwK9Em3Zmeo9eybC2ZghsbyGKnB0164KaroUdgiMdvBXiQJu2V+79vayFs8Lc0V7nRrxtSAqumqiivwzS2mvEgRxNrwokO7O44j/AEs3mSuwBPuvMdO3wzucqKmLw4In1K8xs1ldmwUtrYTLfoV4Cmpdg5nKcR2EObvCAim67uv1W/2v1W/2qRGlUNlxhzlT52TaSEGbRUKcMzCpbXSrqVx10XXN6mdKhkssRylfKm8zOEXTNvRTaa6NLa8a5o3ojg7zCg/SrxlLTLhCfbbTgq8BS0ueU543cG1jUGNspirqV4Cls3Lw4ZyjhIh0K6leDqvDYcx0PKYXLMbizPC9Smx6m6GZddCRo1yEuf8AoqW1TnnkE5554pMEyr20LI0DDmCyC65SeKdcdx/qHA14Clk4hVSf6U7yuQvRiDGCpQmJv0brxNT3sxN6FA8tevBkToNG+4ZjpVRa5OYcTf204Wuo956Jx76An6QpYqYvFaKjFcf6CqRG/wBrK4cdVP0b/wBWKltcDmpwOKhVHleHE9Q4yulJQx2w0trifofbUpqUtraNBvymYKW1xv0Ptjrx4KhntbS2uCmB+h9sVeApbXC5vNFrmlbsd36bKabinO0C7lLgKKblV4WV4NlLa487QvSjE2flyxXTRrlS2uj4bTmOi53fBXSnFe1vyi2AC5yySaFMx3j4cqxnn7qbYzx90YUb9RltcFMRCe04ZhAOOcaZc7cEXcuWhIVTe9tdJ8XmEXR4hI6YmN+uyuCiz1iHcF/jtu/KAj+W5XobgRgEUc8QexBwNdGbjIK5D9AxBjF5jplUeQrxN899YnkMcKLuulQ39RgonRIhkAnxX7rQYTzd6IMjnw4ndUsc3mnMdyxXoZV2NkKy4szhPopTkzpj8V4qeBis3pw6HH4UTOxZoTlItc1UjtH3UxEbJfhtndNvulhm0yKbA2wzbyKD2GbTZ4zB86GV0/lecP6VWuU5FeW0q6KBZyTjA9o3oNCrwDp9FEDfq0piiuiM6SrXG7Z4pmB6bHz6cIGMqgPdwN55kE6FsRvHqi47zwb47hJvKzwYZ+eDkEHkZ3DU803nfSFWC+6pwXifS0ujOr0RANyF04RkKHUlMgw+SiFu+SLjvPBtKY7tpuc45uQRixjM2B0B5agzbhI9QvKJc87kXxnT7cK+OausLTzRMsh4Twnb+Wk6I/c1OcTkFBxfgxvQ/mgW87C2IJhFzKsxZGzWZp1L/tGkNlgmvu40bJtBze22ThMIv2b+lKIJG2bhkCkxoVWhVYvT/wBrcVlEirjsU4guMV2GKaLnncFEinrLWyAu+FlhOHyFQNXsWZk/hZ4Th9tJsRlHNTT7hvwZ21U4ByqtAgxuO+0ZhbQTW66O6m7Me6ppRnQ9+rdhiZTX7YfDHRZITb3VUEhglFhh6J2fyj2XnMy9dG9vYd6n4hvdLq/LQg9ZPL+CmwttFHe5TG5Ux0Ra7miYTpDopxHn4UwwTVN2o6C/c5OvsJh/VpiHAbPugSA6LzNlcZbFbMIxtiE2fTqTG8INJzM346cHditDgjF2CnYosiCThoNhwhOaDWjPzOndNQjtOyjL7hqeDyicYy5vO/QEWKPNdp0sLH1BTvodUacOIOqY7tjrwkUfScbJibG70AOWlS2qLgMzK6bflQ3dsVeEiH9qiu6nG6N/9NWtjmciozNzb1NIKFOyltcFOBjn9hROIDqoLe2jS2uBh+rSayE2ZKhw+gVLa8M9rnZn0xwv5KH8aFLa4YJ7Y7rKlTiThBfmIvi/Zfl4QaVS2vCGJHcGhFuzwXfKo4AfCnGeXY4f8lD+MdNGC3tja59bq6CynDVsbBnklpT6KCectGuOX0Y4h6cRW1v8dN8A+3dhpbXG+I72iajRd9444z+qpbXg64IbwKXdOG+eTmmvHMW0troeCz1u36EPq62vB1wiI0VB1Pwsd1RuspbXQdEiGgT4rzT24wVDDCLw5cLXFFZ2TmO3jTbEhmTgmseZRhbXQL4hkAjDg0gN/wC9G9s7yOyDNr8uIptMxwVccl4oGWJqCJCdJwQh7Ybj+p5q8DMaF6M8DsixmWD01PwkZ02cuKMOOF5TwGd1PaHOJ7OUmwgfkJxgsDIjRSScx+9uhRSa6+zugI04Z7ry4zD91lIK3rPEAWaKHdgUW7C27/JXo7y7VmNwHH/ioApzGn5by1U2h6/yXrPHc5TO/X8V4zO1KW14B0OJuKMh5Tt3GMYBl9yYxu5olp0trwTmRRNPhfTw03NIGAMYJuKDnjzXa1eDe96fEPPhLsMTKEbbRM/SrjoLZfCdE2LM3orsQFp7qTalN2nahm9o1q8J+HhOyN9XCSgtMuqD3i/F64JxYQL+qDxBF8c9avB0UdzN91F7t54O/G/Tag2EwAY66NNKupSx8M+4STmvbkO445wWU6rPCJ+As7HNW/RfD57+DrwdLaosjtBRcAXweuFkJu7mmw4YkApSXmwWuWXZ2NRuC4VcdVvI46+kjXpbXhq23XiYRfsOU9F+Yhlg62SG9eLFHmOriZFb1xwPD+scDXg6aMo0NrvkK82809ivEq93dSbuxRezVI4QIMNx7r8RtVX8tWlteDBbUG2vAFhqCnRdjF9jqr9JZYQ/teebnwVOK4xfkKUCGGfHAV4KZUUN9IcZJuwbU7zG/pknf2srgpr7uDrwFLTsezO8+J6yPaLLzTJw5qHsn/IMMR59MRv/AL/uYmybCwsiihiH/wARe9xc4mpNn//EACcQAAMBAQACAgEEAwEBAQAAAAABETEhQVEQYXEgMIGRQKGxwdHw/9oACAEBAAE/IW+rrnPxP/8AQVlriSOaJ5ejaWir/XxTggQEvWWFvmCUJ8WkuvSBTV4YOkQkIit9Y3NE7+iQq4Ei6QEvWWFvglCWdJbpAXuYOkQlPhJehuFb+kJQq4IEBNMsK3iwSiJ8WkOvRoLv6MKOIQyqJ1MREM+3rez/AOP4SmklX9jJ4ed6NwlfRIUcXxoGgWFbCUPGtJ9ekBavDBttEQJYeV6Npaa+hKDHxafziBoZYW+CUJ5pPRoJeZhgQqv5xnBc30hz3uwV6mOt9CSWFeaIkCissG28WCJYQ4iO6NCV3CQoiIHjFvBr8PwysPQ+44S4tPK9G5pK+hcKcREgU6ywtRYIlxHjWk+saCV1mDbaIgR/JTrG0tOt9CUwY+LSZA0MsG65gkJ8Wk+vRktEr7nxOtC7/KR919Edeuv7MHKb6hSDpNECCND+LXwkJfxfJ5JiFsT8PZUaQl/Rhg+AmKdFH07a4LyY3CV9EhTi+NA0CwtRYJJYeNaT6yAldZgzaIgRKdejc0630RIpwT/JA0M4vorYSS4Q4ie9GgldZUncEzcvp7Blcf0m1/obJdLDWcSGcFJVLr4oiD6oNL6SMwJ/g8Cc+xnuT4eDGM6z6JCI2L04M/EY0KKrPsonwHjFO6G4J39fBuEruEhRxECBRRYWosESw8a0nvRC0SuswoiIESnQ3DrfQlMGPi0nukDQLC3wSHjRPr0gJN68MHY0dcGbmVt9Gyeyw0kG7xCULPJ16zS4+zNSX2JW57vSrvnrJ7KaYVh8jPwJeZ1fAp1lhr6Epnw1e8JCnBEgaBYWosESw8a0n16NBK6zENtoiBH8lOsbS0630SYMfFpPdIFFZYNt+YJJcJ8RPRktErrMKIj1ucHPdTZPLKaYXwhIpL1mFpINk9lhphaSCpEr1ITTr8jcNcwSSXB+CIYU4iP5IGgWDbaLBIeNE+sgJN+4YM2iIEinXo3DX0JQY+LSJAorLC3zBPAl+SfXoyWiWnhhRPgGXHsS+qSc59lhphfCINwl6zC3CDfoSKRswbuCUG4TyKPfia5glMKcEd34pxECBRWWDbaLBJLh41pPr0aCTfuGDbaIgQwp0NzSNvSEoMfFpEQEbV4WFvgkPCtJ9ejQSb14YUQQz4EuyS9njx4jSQbuEg3CXrMLSQbJ7LDfwYN3CQbgldEQVN9foVbEl0SmFOCO6Nwr9CUIGgWFqLBEuI8a0n16NBKu4YNtoiBHNKdDcOt9C4MfFpIgaH/RYWosES4iOaed6NBJ9vDCifAQG07ODBPt9mskL4RINwSumGkg36IWEpg3cJBuCV6yj7dakEklw8K0nukBG3X8jQLC1FgngT4tJ9eiFok+3hg22iIEsKdDaWnW+iQrxdfxoGhlhb5giWE+In16Mlol5mFEXwInkGFv+A2Zt9bJC0g3BK6YPZ7iIT38RoRpOD8Kp/gTNBzFCjE+hnPQ3cJBuCXsw38CqtSrEveInukBKqzCo6dZYVsJQnxaT69GS0Sb9wwbbRECJTrG4db6EoMfFpEgUVlhb4JQnxE+vRsRvXhg8BAQinfhoD520ziuIkG7hIWEvWJDlPRn29Imvw6IcWk+sbS0l9wjENfaO9AycGSmuIhuEulhrJCtZqO2X/mNBLTwwtRfCwtRYJJcPGtJ9Y0Em9eGDbaIgR/JTobS0630JQY+LSZAorLBuvoRLiIcR53o0Em9eGFE+Aa5kO9M83n4POUnnycQ3cIUl6y7pgxFMXW1/oSSR4VpPrGhK+iQoi+A5rUucH5FR8fosNJC+hKDxTjEn3wMlLrLhg3cWEPjw+BIeNaT69ICWnhg22iESwnmlOhuHW+hKDHxaTIFFZYW+CJYRwn16NBLzMKIiBcfo202pfJhWyQvoSG4JXRG4XlisM+UJDwrSfWN5Eb14LhRF8CYp0LbT9C6OJ8JBshRmnVyYLROtE35GuITwH4eTpIT4tJ9Y0ErrMG6iIEMKdY3NOt9CUwY+LSe6QGNRg3X0IlhHCfXo0Em/cMMC+BEpnBMfLGkhfCEoNwSumDH0rOiUph40T69G4S+4SGD4CJbrLDXpC39J9jbEiwSumHih/X6Yi8wLhYbzp5rvw5ZpPr0gJVeGDNohIQwp1jc0630SDHxaR3rIGhj4W+YJMI5p53o0Qk3rwkKIiBEp0TvtHRg36INwSumFbwS1vseNE+vRuEvpIYBAl+SnRYWuYJJYLedqGocab/6Ul6YN3CQ8FfgiNOfY4Nqt9r4Q75ICV1mDVEQI5ox9ejaWnW+jEMfFpPdIGhmFvgklhPiJ9ekBJv3DCiL5Ap0NzTlScTIX0JFhL1mGlkTy4QvRPr0aEb14SFE+Q1OhuGuYJRcPCtJrzUS6UwlMG7hINiXssHtnE3+ICV1mDXEQIYU6xuadb6JCnB5xAorLC3zBJh6ekevSAk9mFEECJXobh1voXmXIJDcJesw0kH/AKAvT6G4S+4SGAQI/kp0Nw19CUwpxEfyNDr8KMOvhBsS9lhv4+V7DBm0RA8Yp0NzTrfQlMGPi0jpARtXhYW+CSWEc0870aCXmYURECSKdY3DX0JTDD7BKFErphaQb9D2PD+CUvpIUT4CWFOhuGuYJRFOCPXpAl6zie8Rbwg36EvLLCUwR8PYhmjeFhAjhTobmnW+hKYMfFpHdIGh/wBFhWwiWE+I870ZLRKq8MKJ8BEY+huHW+hKYMfFpI+uhQY0/R9xfwYW4SDfoSG4Jt3wMMHwERj69G4a+hJLDwrSe6QErrwU5cSQ11tZBsS8ssNMLcHuD7fv4Zvi+BPNGPr0bh1vSEoMfFpMgUVlhb4IlxHgSnkIYv8A5IX10Zi+iifARK90NzTrfQlDwrSIhLp2Gv4NlTgjp6o06T41pRIsJSW/2DP2WiCRV0WGuYJTCnFpHdICXmYLfFiTWxv0Jeyw04it4SCU7vBSQgU6G0tOt9CULcRMQNDLBtvFg9RvsMEixyoZOr5SjGyu8MQ/9hnEh+T8OMSqFX7pAgU6G4db6EoeMT3SBRWYPuLBTPqaOHNba/Al7LDfwYOXwaYlN5EIQx9Y3DXMEoeFaT0gI+mcSG/JIHM3t9ehsS9lh0YW8EhGtNN8SJJqNK/z8QKdDc063pCUKcWkfyQNDLBuvoctVHF9jdFbl8SIlxZ+m4OWk/4IL/gx9DcOt9CSWFuaOtZPtPC6vfBu9fCTa/sQW8vDG28WCJYeNdZI3eHEUl/BhW8INofH1HNB1DcNfQlCnER69ICV1mL6GZZK6OY+M1exuCXspv4OCIe3r9Hbvk4KH/GJCtPZGCSSLF8FXWNzTrfRIMfFpPdIGhlhb5glBBcuiz+P1KqQCVLsX/obhr6EoeHQlYi3X7PNAiTfhfE9OEWY+1aJ1j8rWNGurcJ9ejxqsnDUh4zC3MINwS8sWJfa9iVN8Nb0Vmya8HgW/CcaJXWVJDUvS0Nv0Qb+xL2U0wbrLsGfPgUVlgnf0RDc0630SDHxaR0gUVlhb4J4Ec0S4VNC/YC/p/qfRRRHOV/2RlL5iRNZn5cJyZvKOhHteH5VhtM/QyTCMacMEUm6vyxWFTjTpL7gnySwkWkg3BK9ZYaF6caOy/ozYsdX5g5CAiusVZV+KhdVP9aP7+VY2Jeyw0wbuESV3QiWJGgWFrmCUz4a/iJTBj4tJIgUVlhb4JCPFp53op8thgnKz8v9mJ6JJHQsfogDnLwbrPo9v6p640ODxaolEfk0NRp7Y3BK9ZYaQvhEKJXTCt4SDfonspphW8F4U31iGLrX7FXWWGuYJQdYR+/hj4tJkDQx8K2EhHNPK9HZNe0u0001eD3Gsbf8/wCE+DECY29lcFPuSefA2TyzDSDfoSLBK6YVvMIN+hLyymmFuD0dG3xFp1BTr/gqRW08CUw8a0nvw7EecQKKzZjjOsUBBn7WC17i7rJ8RPr0TE45fWMgofE45+Ubb1vW/wBWfuoBoVivPIlhJJ1/bMVjj0azpPLLDfwYNkKRvTC0kG/Ql5ZTTC3CCWOJoSZ6hYa5gkkeNaR6+sbhRKECis6hvFbfHCjkbibz4Yk08TlPoGUX/Y1NTZVG7Eb5XP8AEwVBFxfSZDDrmkh2WZyeEU0kKJFErphpBsS8ssN/BhW8EoUSulpvH+hrmCUR41pPrIFdP4gUVjlIqs6oFpvJ4f6ImRLP15++3sjv4Pwh3VScGaxVRnsWU9bMJNGxIpKJ3WPqDIkPfC1qa/KG54EjPBv4MG7xCULCezCHrk7+RJLDxrSfWNBLrM+HTrKl9DYC3i/DEp+3n+Bjq5HwRm229G1DXMI2ArAesW1+8sJdGog6tsSFCX0Ku7+Bn5BtW1Y63+4fLoxtjh/C/ot4iDcJ5YlYl1vBee8lWifMh41pPRC0RvXhh0i+Fg0WIfRrNrJfSc/dzRhPwikVLn5YhPUU/bgkrc/TGJon1bI6X5bIv7LQaOOwbBqaSf8AolFEU4tI6PsK8zo1KP0bFZIqdYn2Rd/IiXERzTzvRoSu4SGxtOEj+xuDOOb6VIDXuQco9+ukkkS8HiWk+saCN6zBu4sIfHoPGRWFb69e/n9rPhWbe+KUqLvMaaEapPXtErw/B8VvFhC8DVde0Of86S6/5GBPavi9q98L+xFMaRvF7OaGO04cH7NtorPJlDsLElTbrwTn1sH1OPsSiiJ8R53o2lpG1fEYinB2gSdGlWPwwUafe4RM+3wSPiQJTDwokQErrMG7iIDjiOkOqiDvVHJihx5+01AjfUViGQUuvsbSz+iiiwbuISHjWk+sZLRfZ67UMX2zRVozeNPq9P8AXPhF8Jlcmcf2drFpMJCfEed6Nwja+DBj4IEkU6x8H19CSR41pPrELRLrwwa4iBPiPdvxPiPK9GRkeGqVemrbdyfga/c7VP2KRDKtLiQua2WXkgUVmDdxYJDwIn1jcJfcMFSNFOOqjehsFn8HfKj8r9t6nbWn8EVzp53o3CVXhIU4iB4xTrLCtp4EkuHjWnndY0ErrMG20QhYTzp53pYUXkNBK68IhoKkl/z/AE58RtxK18SEzVPfwQNDLBu4sEi4eNE+saC6rwkMAgLFjjTFVK9+pXx+210jSf7Yj3Cv/Q2JVeEhTCB/ONAsNcwSHjWkd0gI3rwwa4iBPOs870bmir/RBoJN68MOXMQ2hU5L9bHrPxMmkiKKzBu4hIeFaT6xuEruEhg+AiV6FePJ/BH1NSftO05eE/6XLvH/AAlV4SFOIh8Siiw60XEJQ8a0n1kBK68MG7iwSE+I870bmkqvCT4ldwwwIQj5GG37Xvzny3E2Lfqwo/wUVmDdxYJFwjxaT6xuEvpIURECJXobgl8uLTGQ4Njx+0v9xTv2JBj4IEsGPosLUWCUw8eie6QErrMG/EgR4us870bmkqvCQ6cXyoi+BFPAVnW3+r7jJCYMgsG7iEhLi0n16NwjfuEgxoIESnRYa5gklxC1Kktv9mryx25xdSs/kvrr6DHwQILhoFhaiwSHhRPrICV1mDdxCQnxHnejcJVeEhTi+UzfF8BaakIlNDVJ3UJEZ+mZe1/6KQWJBu4sEihDiI9fWMl1kvpIUT4CIp3Q3DXMEouHhWkHV2u/rTEVfEKVwueeHU6NTg7vmLGPnyA0CwraeBKYeNaT6yAldeGL6G7i+BPDzvRuEqvCQc+IQhuH8C6ByvSDNrHaaY6df66LKHpt/wDDP1NGv0/6UqxoJD1aT69G4S+kgzgQ+NTrG4a5glMKcWkd0V3dbc/WqCH84UzhhiMAgeMU6ywtRYJJYeNaT0aCV14YN5WECedPK+sbmkqvCQpxECGFOiHCZbavG0yfGfrUHuEW/YeNE+sbEbEhRF8CJTobhr6EouDHxaR69GgpCuulPX63IVx1SQpxECBTrLDX0JQ8S6yfWIWiN68MG7iELCfEed6NwlV4SFOIgQzSnRZ8Isflv+/GfsNUp2OJpPrGxPPDBnHwESvQ3DXMEoeFaT3fgIdom9fggbh7X6rCuqcwY+CHxqKLCthKHjWk90gJXXhg34iEieaed6NwjYwc+Ih8CnRYW/r4N8Gd+7+21zFfyH81WI37hJgxp/IgTFXQ3NNfQlMGPi0nukBK6xNjvwn2MSn6o4S14MfkV0gSQx9FhrmCSXDxrSfWQEq7hg1xECfEed6N5EqvCQc+L4EfyU6LCvlCJcXxREjfx+3L3yhH3LN79HEjAIEfyU7obh1voSi4U4ie78BLzJTktlMCtpFk/XS8TROSO1hDCnWWFbTwJQ8a0nukBLbwwbbRECfEed6NzSVXhIU4vgQwp0WFbCSWD8F8NJ13BIce7f26EjU0xONWNN7/ACQ+NTobhr6EoU4tI7pASusQxW7WPyo47/LhJ+vRdl32omfRfU6v7ITsxp0tRYJJYeNaT0gKtZg1xECfFp5X1jc0lV4SFOIgQKdFhWwkXDxrSe/DKtJ6atbbaXxYS3Fb+C/sMtOcaERk8TgrJMwbhrmCUwY+LSPXohaJPpjo0TlaPgdvLUT9rqzj/MGegJtm/wCkIkuHhWk+sQtErrMG7iIE+I870byJXcJBz4vkCnWWFvgngeNaT6xuFEoUPprjXGilcPybGKUvsXRJFryp/wDg+iRzibFYRzT+5+xY60ayODJe4rtz+ROl5LZJUQH+EHsp6Z0mggv5NihtmvCpAOfG0THZybxttf1+6l0vbfghEifXohaJXXhg3cXwJ50870bhKrwXCnF8SGaU6x8LfBJh41pPrICVX8QND/osG2/MESwtxdO8r5LPbLf2Wj0n8f0zHfrpqf2mBXpsrZ9v3mx7uj5V4aJ9Y0FWswZ8rCBPi6ed6Nwja4jEU58JAp0YW+CTDxrSfWQErrwwqOnWYN3EJDwrSfWJAq4yjrc28xev8yuRWn6JHNNBCAlt4YvobuLCBPiPO9G4ukqvCQY+CBHNKdFhWwkkeNaT6xoJXXhhanwsG28WCE4eNE+vRuEvuClvFT8pj2zrZ/1/i3+3hUJY2uFufLBLnEtLKE1v6fwEm9Zg3cRAnnTzvRuaSq8JCnF8KGaU6LB9RcES4jxrSO78BK6zBqiIPj0CJcR40T6xoJN68JB2USTS/Jxfbv8AxFF175FRG1643R4SsuB61O1nn8DCmH1JBWldXxJVidK6xYVL6Ez9wwbuIgT4jzvRuaSq8JCnF8KH5KdFhb4JJYeNaT69ICV14YNcXwIcR0kPGifWNCX3CQ17EtZX6OJeNonj/Cs0XXVdiCIDV1104kVtziEiUPxzx0a24Rhz6PAldZg3lYJCfEed6NwldwkKcXxolOiwtRYJRcPGtJ9ZASuswwIQJ8R5Hvx6tJ9YyWkvpgxoG9RXh1pfX+f8N67uxc6hZJLnOjcLXMEph41pPdEILX+hg1xECfF0870byJXcJBj58BD8lOssK2ESw8a0n1kEJdwYNUXwJ8R5npZ8F5DcErrwkGcCAjep39jqAnJePz+r7GZv1ZPp4I/czLT7TR0x/ZU8f6/BX/JwWFqLBJLDxrSe6NF0SuswZtEQJ8R5X1jaWkbEhTiIEMKdFhb4JJYeNdZPrICV1mDGi/sguEOLTyMbgnf18G0iV9Ehg+AiO0WGGP0Wljk1z8Iv8P0/0IBtJvPF6Knp+hFTUvIxJM/aHrbR+k//AKJBDFxpDK6+nn9bFJo2pfLP9BJLDxrSe6QEtvDBnyiBPOnnejc0lV4SDHz4KBTofBuuYJJcPGtJ9ZAI3rwwoiICeaeV6Nw630JTPjp3CQoi+Qqd0WGuYPC712o7bfX2xrS4+MuMSPGJNC6z4kSfDznUn4GfKEhPiPO9GS6xiJ1LX9Cd/U4jfT8XosX8HjWk9ELRLbMG8rCBPi0870byJXcJCnF8aBTosLfMES4jwrrJ9fwEvMwaovgRzTyMbi6a+hKYOsP5MMAgRKdZYa+hKIpxEd0YKFewdHveIL+hLaR8T0SWUX6ghYS/JPr0bhKrwQilW5r8lewtX6G5vCodeFUcUPUTwjwLSe6QEtvDBvCz4E86T69G4iVXhIU4ICGaU6LC3wSYeNaT6yAl14YNcXwI5p53o3DX0JQY+LfgUa/Gmn4nhkPiV6G4a5glMKcWk9ICXmYOsQkJ8R52NCVXhiEO4mLsNNk3J9Qtxf7P/wCERdPuf/CByvYMRojUolv/AEPCtJ6QEtvDBu4iBPNPO9G5pKrwkKcXwIFOiwbbxcEoeNaT6yAl14YURfAnmnlejcNfQklhbiIjw1JJVs7FomviisS55n/4IYU6LDXMEoU4I7ohaI+mYN5WEERHNPO9GhKrwXCnEQHXmC9af0TwJGuYJTDxLSe6QEtvDBu4sIE+I870bmkqvCQpxfGl+SnRYVsIlxHjWk+saISuvDCiL4E+I8jG4a+hKFeaIkBA5ojG/j8sonNu1JqZzIXFX8H0SfDzDJXSDdnwGh5X8ShKfCSGgl3vw1UYlEMQ6MSrvx0QGiEPvw6dJBiQ3BVvw+oxKGTyfHT78dfAaCXz8SuiUGIDQzwB/Pw7/f8AoaaM2Ot/H//aAAwDAQACAAMAAAAQukYsckoQYYYAkc4AEkkAHYE8EgQYscAsYc8kwAAYYkk04MAA4IlbZ3ysalc4AwgU8kgAAYUEk84EEAEUQ8YFVG5cKtgg88ckoAQYUEE04QgAk4WYAE0g4YYE8k4Mck4AIYUkk84YgEk8rzgEpmkc4EkPYIwE4AIYckk84MAAkVuDgE7xwYCnE8C8YwAAQYckk84IAAk87MQE2bA4c4VTgJ6GwIQYckk84QgAE4gZYEspAoc8goLcYVlwAYMkk84QgEE8kQSEk0vQcskk4nYI8wMQcsk84UMIk8AYUFK84O44kgY4QIM0gMUkgc4IAAQYU4Ewguwc5iksYY9xEtt0AEk84UUAAAwAgUAkE94UlRHzwWEsr4U8M84IAMgAAAAggEgIahkkAcYIkwvvIkwU8QgcoAAQAAAEAEkdEgAYYQEkAVEkg8wMAAAAAYAAAAAAAQfHheCqftgNgEEwMAgAAAAIMAEAAIAAQM0XTgEAJUYUkkkMAAAAAAEcgAAYgIAAkAkAcE84UkgkggMgEoAQU0gAUYc4sAAAAEkk8YAEkEgAYMMoIQAEgAEAc4EQAAAAMk84YEkEgAYMwcsYAAcgAgcgEQcAAEIE84IEkkgg4c0wwYAAAwAYc4Eg4cAAEE44IUkksEYc4AMEAAAAA4c4Eg4cIAAQY4AkkEgA4cwEUMQEAAAAggE0YQsgAAAgQMgkgkQc4AoQMcgwMAAAwE0UgAAAAQAMkkoEwUwIYAYwEAAoIAAAAAAAAAEMAEEEgAYc4E4IQIwQAIA4AAAAAAAAYwoQAkgEQc4kAAYcYwIIckAAAAEAAAUYIEgkgAocwAkAIcEIw4c4UUAI4AYIAAIEkkgkQYYEYAIYIgk8c4EA4oYAUwgIY8kEgAYMwkQAYYQYA4Ago04UMEAg8k4cgIsMYc8I0AUEY4Ac8A//xAAgEQACAQQDAQEBAAAAAAAAAAAAAREQITFhQEFRIDCA/9oACAEDAQE/EOHMli66+ZaoHTtKjESgUYzAKLEdCQhFklNzzjSRnVGxMK6Qtpp080ScB088WSa23R4NKptnjvEdUNbjbIITGGziilA26MjPCSzhGCLCYNs2zzvxRVxw7g+IkKCVwWPiaF2YrAXD8462NAaQniFXZGPfAiVDboYn8kYvtC4J/dIJdnR4Er78KobZ6fBtAkYSSAPoaRI2AvsJts9PhkppOu48pZFtlvy/uTnoHplysJ81w3G92obdD4uqDzZkShvGXeB6dHThcR2YDyOppVNv4FRBVlxMatRpVNs2o0uMBIF2MEAlUZ+At2d4DvqHyGkJYIaiBce9XhqvP4g/QqudSErC/rf/xAAiEQABAwQDAQADAAAAAAAAAAABABARITFAYSBBUTBxgIH/2gAIAQIBAT8QOJgSiP4jE9gwrG0gyqKzUb5RBF0EVkgUgVD3JoNMHKnlgUxPzXxAaC93Y5TE6DaUKKwZZc00GW+8JEmqPAU8QXgCFARWFvAKBEGMEykj4kpYiLEltEdkTBURKxgSB9LePoEgwihg+gco0HBK5zEY1hLDJRlID1iQL8ztYWhiPgYMuKEUkU9zxFAtwEzXdCBjEH40GBgTpmGtaSDgcw9/YjpRQscg0He5Iv0nEvxONuaGSAAhSER6swLJKfg2gAhiCwm2p7KFqROP4IhnTw/hUvRFRH7MgjNAb//EACgQAQEAAQUAAgIDAQEBAAMAAAEAERAhMUFhUXEgMIGRoUCxwdHw8f/aAAgBAQABPxDYReMi/wB0wjCYw+/W4kPmxs32mAldYO/MZ9ndoEvHIHTLGgJ0cbCW3D+bH250RAxLAE0XrozO+uQJWPhY9wtyXdQmzeeFsJtjIjzAPZ4CYnAE0WPvzGfZnaBOsosngE2WebCW/Y3nyLvOR2jwDE4z7/7bj8rfsJhTAZ78H2M+zukGcAcQm39NkJmctjpvE2P8plsTmGZgZyw8oZnfX8SDKx8IztY2I53OEzvPC2MjtD9OCzvBPNbwPRze9HbOik4jq2PvzGZ+rkHSqFmd23OgTCyyAz3mfbE+UGzfH+I9GKJhce1l/ljQfNseCmA7cTuy39xn2d2gypIuhr2EJn622N1tsGxcTOsnOhQMcsB35jPsr65BmwwJxrlkLHywhjYnR9838d5GSKx2tBxN/wDuMupoOGLLsJh52zF7SrrnAblhbu02dc2hwgdHzHEQ376UDPJiFmaYE7oz7fYTunAjjKE/Jc2/AmFMB8ndn94zO6QfJUk3QbG7YTP1tsfLpTCYjtzZ1gOhQO206rByzHlfXZGOAOI3C9xcrehM/WyirAuPTc7EyP7qGiOSOhOtuSsZUSMJ2azbk8nRIP8AepL2CHexHZdy8S1jKkzU7bpfd3VgIt5n2xPlO7AZNiYQmFKAz3mfbHlqQZUkXQblb0LH622Ml4mx9ubOszvooGOWwcwZndIMrHwhN9hfI4J0mNjIqxCJf2WTpEP4Ah/Mn5kZNy/rqR08U0tjJFblmiHAjL0L3hQgGOw5gyTmd2g2+ApnEzLIAzui392PO6QZUkXUbITP1tt9Wm0THtmdZOdCgOBOWwcwZl6+QbE5NwsbtudzhY/W2xnv986uElog4Gg2Tk6E4EaA3I0Ihg3+XCeDqIdd9gT77OB7AZzgn4Et+M7YTuyOYZ9ndIPmkSJxfY3sITZnexulMJhODmzrGd4z44DOWx9+YzP1/wASDKwwIxOMaMhY6gYEtRn2ckZ4WbEbQP8AMRgTEiDhbkMDWTgQnzRkapDssnfL+VvKRwJ1WLnQZWZ9jPs96DpEm4a6yE2dxsbrbCYz8p1QHQKBnLfcRnRWQZWPhCdcZCdJgwZajPyjHsbTPbwM9/8ACuUaAGhCBm5EdUQ6BwsiGpAcbEAS8c+YziOqxcwOiHu7jPs7pBlSRdQmQmfJWx8utsJsXEOqA5dFAdticsJy8xmV9cQZUkWONoGEzMdhLUZ9sX2bbBy3nEbPHTEMCMSyMzYTuiOqEY3bhZENSQcCM4Hk+NAGW2DmBN1JsHxY3s7pBlSRGNQ2QscnsbrbCbHxynVE50KA7WdYA9jMr65AlYYFnsNMhY7zwtjLeJ9jPsi99s3HvGYgQ8ETEsjMdmh8IXExA82bGzUHJ+Dzv6OOXaMjENCd0ZzgvCA0pWTMYsHMCZ+vjA0C4gzgDiE65ZCzO42Pl1thNj7c2dYHLooGctj78xmXr5BlY+EZ2vYaZGIrGx8mWLHsB43hZlb+hkQ+Z0MzQMGgEMECXt0mdb8h/wDsaxDszTb0EbBZY8ffks59ZKa18JNIckdCIzBhgrphyuWxvOaUCVJNw0NjdsJ0U9j5dbYTYuI6onOhQODicsB35jM/VyDJgILHuNDCdJgwZaiHtj73RuysfKxKi/oav4jBoBHAhKHpYryy9nb4TbVil7CEwsjAGeMzDKMS6TCZlsW68jBOpBubN1oU2E8ITpkoE41NkJnUNjdbYWYOIdUBy6KBnLAd+YzP1cgysfCFh7OWmQmd54RgS3mYmOkDk+BEzgZ2iHUpkZgrnwQz+pCAcaa9hCMwjIxlvM+32Ey74PYm74ZV23fzEZojgQHeQPuIl6eEYgjhPtGhl7CEz9bbHyfr4TGccrOsznQoGOWwcwZulcofiTAQWcbnpkJs7jYSOzPsR25jwRRdk1yiHQTEuZqSJpygDG1g+XTIzvCywAzujMRx3OrQD4nOxPikkzMaTGRnQyHMEBNyOkw/QRM5nk6Ns0shMsDY3SmExnHKzrA6FAdpy2LmBmd9fxLGVhgTONG5YdKYAZbzMZ9ndb19duROqExLIzoMG884z7HTITCz8IBndGfYzHVINlCTiBtudH8o4EQZkYhHIbii/wDCNFzAtAKygmfrbYy9fCbFxDlic6FApywnMGZX1y4ysfCNnsNBhNncbGS8z7GPZ3QGIbwMYE6EwQcLld9tQw8hMRkB2lqM+wD2dUBnOCSoy25rdBYuQyXCyIR1XdGMoMC0Ez9bbGXp4TY/ys6zOdCgM6rE+UZl6+QZWGBMPje0mEzOeFsZajPsZ9mdgd9FMB7PBqoaAcqIOYcKmd4WWAGd/wC0Z9iOI6oDb4CkcCzrxcwTvYWOE5IYGn3RjnODTm88LY3SmE2J8p1QHQoGOWI55RnRWQZWPhGzjRuWEzvPC2Mt5m++s+xNvIDNx7liTgWRnQ3IwNJ7Wo8pzRZ+EAy1GbH+U6oDbyhiJ1pcCbIvHA+BkYGsxjJ+aMLHdo2Ed2ExHHKdUZzoUDHLYuYMyvriDOAOIWewvs0LFkbGWoz7GZ2wO+igY5ZQPBtjUGhzNj8rchHVosSPp0wwPJ3Rn2M+zljO9vhpOIy2wcwJnhFSRubcUavGP8xsmHFKZoI0Y2sHEOWE6FA4JywHfmMz9f8AEgysfCFh+wug/aA/vZktekbQWoz7GfZnYDoUDMtiO/Okybciu28jTw+SRUPAj070mN2xqo3UojjkhD2M47miQbeUDM62LmBM7zxthHB/xrlyNZnBf5tiUQgBp5QZ1+Z1ROdCgbKv7CMyvrkHSYAOj4bisMxHxYj4O2Rp0LM4NIfcxDPtjzqhOigZF7oTmDPs97gyYBUZK3w2iEYK4TeuSzM4HiDXPLOWBt5QMy25/KEyvTfSJrCHfuShwOpZjc0Ogn34TsW0/wAWjH9nVAdFQOCzrYuYZnfX8SDJgIbL7vjxXHgC4PxHhXKBlO47/nCdFJxHVBKP3V6uZCnESdwyCUGNdJgUJg7yHcFocC3ZwlEJ/djDBgCx7wi3wFM4LO0+BM/R20MkhSWXL9sTiaZ2XOGyUquAfku+Q2hpVkuDc3ENiMLKgznQoDOWwcwZlfXIPkrDBnaLVl4/yOzcObFB3gNvITZ3TKFJGidPh9h5cjMKG2RgTAsQ6NMgJfQrGI/zaNk5IMDTb0JYZAH8NVq+VkbdjdjMfo7ugJFj7pjcrP5mmcC/zo2AuvUB6RnHc96DmTb0RnOhQGcsRzyjMt6DKx8IRicaN5W/6PdL6vdmOwQdvaKC6t/XwMObMYfHINn4d6TmTDf/ALsCzEtYZCyQf4c5L2cmI1NBh6OLeFPYLIvLRe+ewzuSfxZqwOooCpj28OJm8fnNdV3Rj/NwuJMjOWKJoENp3SDKlx8TMzxAMct99GZ+rkGVj4RiztIbG33X1BM/TQ6RpocG9WZm8p2/A0d2YMX7WWgWLY47NIjE1gbryMCYEcCyJwlENDEOy5eXCYGlzBd8fHvGdoM5lE2VjRMATlgO/MZlfXLGcAcQnFxtCwPtylG9mW55Rr9412tBAZ94Lbu5ozOw0yDHdGBrJjInCUQYGsxwL/MR4IeuzQOoReWXZBzoKZxN2XP5aK2bE+Vjy35diHG0SvQZTQcK2V2aDDJjpH8v/ftT6OS/4wBCs6D2ujmOUrBtyUUFnQOcJ1RHAhGg5I1JjgRv80OSGBcwrRnkVgkGc4JNxb/4aBv86Mz9XHUT57JC9mmcPrpnsGkZQODf33NswrhZ9syanGR+8/B2R58nsDPyid3QSY3k+EOzRsTu0nAsjQYYGvjHOGyUaI7NA8PTHOCTrft6CExXiLB8RmXr4J7KMy7sGfgGB/zQ3ib5QAFzyJTfXwmdfvn4CpwISnoqD5TQzDbNG/KbvUhiTBujshjcIoTib9veQmXp7YWEXcHfZo9WLAx/1jI77IpLoiLumdreF+gGMJN/yU5+pUXdVgg2j4VOOrYHnnGxf+G2zLL42nh8Hf8AdTf7si+//wCaMBgaQyYZh6C5JE6XyDkS37c/lC6BJwbPrNKBZ4Voxr9xADI+/FGOhQn4P+QYkyYGnx8y5Y7/AEp/zp5C+Raj7QLHmMfKHS9GPvEpXM/42g5rcwWONoGEwpQGLezwvhG00TwP8EfoIS5/HAQgbjC37eghNwhLYTwhOmTxwhtcAh9mP2DHd0ECQYq/k1YTDOohHAcE0oJwigmzGkksowyqfzQh+gTzcZyA/hACshMzuWEYMWa8EFQPKlsWHwhyGL2GhjYQiBtcSujQMZlZCssBifTZGsqQVjMK+IRMT32Hl5hM/Qzgz9DCb3GgwIpDA/zb9xrIf1DhSQhWa0gmSYeA+BLUgz9bCcW5b2ELMR32g/u8HcnBPzDdzYfBqcypaCf1hN7C3LCYhcBlaM+3307tY2WEhuLft6CFiXNjL08JvQXfpew0sQ/sYc/vQJgxMTDw/RE6Dv5hQqqPM/lGfZ+rshmlCbf7b2EZ3hZYMGDzsTAu7Y7YPJ8PzAPwccGfhPnJ0MJhSQGd2Z9sT5Tu0GYU3DT2BmAmfrbY3W2FnC3tDMZ/EOcoTNKwGJ+9GPf5gG5YoHey3jpGZX1yDNKGn2N6CExYADK/94z7BvxBWe5Y/rTH2dGSuf8AzkYhSQGV4pn2MxXaDOZTGnuZAnRacCXp4TcPQGM5jzHQE6TBgW4fkP6Il1ucl6oB8BL6lv2M/WwnTXsIzvCyyAzujMR25mV/EodvjdAbk2fq73FM9uF/QhSQHyd2Z9sL2WpBmgmdrft6CEzwtj5PCE3sLcsZzBSQGyfNnYYMjvfaN/yY+R35kh50ii9fODNKHFom9hGd4WfhAM95n2M+zOgNzoqvba/J8361ZWcQB2laM+2P8p20GVJM4jUwcwJn624TvHGE3zE0MZzBSQGbmHyzgJbzPtnNv/4f0JE13aWUgz9bCdcshMZGQHTWZ9iOO53SDbykxvgwv1BxR9ggseA/ZlaM+3vJ3SDKkmL729BCZ+uthP0cJvYaGM7wpIDtO7Ie6MyZ9t0I90GNxBt/6FCziWQNPc6QBYFn4QDLUZ9vuJ3YDvOcElRl/RrRGe4oe7e0coDMbHYvqZlaxvbG9ndIMwpnE37egsGeFtB+jjG1x+WhhMKSAyvffe6bLPgUisvi4lNiIh68l9azL8z4tLHvkJxdelkZ3hZ+EA+TtmfYB7O++A28pHAs62Ln8z0RjX8RG3DwgRjyndGfbE+U7tBlSTdHufyhM8LY+Tuwm4W9pYZzBSQGd2Z9jPynWkymQ0A/SfeVpVD7G9hGIyDxAMt5n2x9uZ3QG3wEKzmm4E/pvJRiQAdp3Zn2x9uZ3aDOZmdtHPQQuhu2E/Qws9hoYzvCkgM7sz7Y+Id0xhL+qgMRl2bDuXsIxCeYMGdszGfZnYG3lM7TLbBzBjeMx/Cz81KqcF3qCK0Z9sDbmWpBnAHEZ201y90EzwtjO8cdFcDSMZyxkHiMGV74z7GNuZ3SDDwzGfpyf1jivUwhYmZ9RGAGheM+32E0QGb4CiY5bBzAmfobpzXwisT8s34TOZkaZ9vv520Hyc4JNwt+3oITPkrYy9PCb2GhhGYKSAyvffzrFxHdIMp6IXQxqb/KH6nJA73K6OBxO6M2LiO7AdFPFHng5jEneeMBLGmef0DM0PbBramGe6Y/yndoPkwpna3ZYGYEzu2xutsJvYW5zwzmCkgM7sz7GflO6QJwBxGzf7LePHc/viTwC/WO1tgRTHSPcMwD2d0Bt8BTOCzrYuYEz9HZTWlgml4gcPjlD8x+UThyDDimekPuHCdmIqSbo9z+UJl6G2MvTwm+QaLDOYKSAzuzPsZ9ndIM4A4hxTctz+WgODgTLlxEDRgtAHOO/wBGTFrQOQ4d9cqIDbymcRzTcCx3rg1PJtztnnkR+oZMt+QjKFxLkfAGnvQQsfrbYz9HCb2FuWEZgpQGV77G9sb2z7QJWPhCMaDewh0D+1t1O/ppvhWBy3dObQwH28LMb0BfYxONzK/QCN/OZEDn/wDBZOK2LgzkmUYSAfdJuD0+75P/AJ4ccs0l2Kfr9R1D+FWFy70CFjwtjP0MJuFvaGEwpIxndiPbHxGfaxlY+EJ0e9hCZuusRmV9cQbG4FmA8zazIbHaoGD9PGtMSsZYg4wLs9570vzv3bVzLO4noITL0NsZWwna+ULfsJiEgU7oR7Y/s7pQSsfCEzct7CEzwjB0B9bbGfrYTjTXsIjb5PsxEB9n/ZG5tiBFGHHkJndtoPCE3sLcseaCkgMrRn2xcQ7pBnAHEbi3LewhM8LYzt3FjIGtUJ9jpkZ3hZY3jJ/9Y/5t8JyDwhmqMNRgRa5aML/aMsDeN8fxbGfoYTcLe0MZzBSQGd2Q9sfEO6QJvAIXQ9zIwN5+tuMvXx+2mTxwhY+xvYQnSYAfIBsIH3KP+JsdrQpmDa2osMmCONv+c3L6TFZdGe7ipgSascKbDYLKL2M/Qwm9hoYzmCkgO07sh7Y+I6pAlY+Ebq9kJnhbGWMztZXZoAL7G9hCYWWAG2YQyptrCP8AiGG2/BtiyyobEs+ImA7IbXsXse079FIBgbR+ttjO7Cb3luWEwpQGd2B9iO3M7pBlf2CPFoN7CEz9DbCR2Legt/TddewhYLPwjB2015Dh1/E5TkN/4jZ+/UkYsitj/UB3lSmcTftyayhlXVNj5L08JvlC3JCMwUoDK1je2PiZ9oE4A4hZv29hDml/pFsZevjHt7DTyBY278ozvNQAZ3/eM6YAQqXPbZ9vyZ2nngnTK++kOzKzhb0OMfmzYVIQZUk3RrAzA0frbY3SmE3sNLDYZB4gGd2Z9jPyndIMrHwjdHnsITP0NsbofB+ZY0PvYTJTCNzCyMAZ3Rn2x9uZTZx0b5urfpAX4gAXL0WUGts2mGD5VyZ00rh0fC0g8g3efnG/VFQcumz79cvdBM7tsfJTphNgY3NDGcwUkBnbI78xnBzO6WM2GDcNPewjyN/S9bGS8tqxsaHjO+imcTJ8ys8AEt5n2IezuyDby4dehkmbPmQsH4GjEj+8d2oO1FbGinTCb2FuWF0Nj0wM/lnc6uBF8W/bn8oWO+r4tjO7CdMtywjMFKAzuwHsZwczukGVhgWN+z2EJneeNsZevhG3NxI+/t+m8gMysXDOHk7ozY+3M775BnMwxFnXi5gwpg2VbmgrzeftgcAA7UDAQs4xoGEwpP8AWtbozvj/AMA+aCacWzY+mIng+vnT2DmBM7tsJ3AxtcLe0GOhSQGd199Y+IdUgysfCE6DewhMs7YS9PGdriRuWE28gOCctje6D5nvyW8GbC9mVgLeUziZ1ufyhM7zxthN18JvYX2MJhSQNqLCHH5fxcAjKCuTB/A5mVhJjbXoqFCvWh7n8oTO7bHyfo7BsfGgYzmCkgO07sxvzY/s7pBuJKM7W5b2EJlnbH4kvM7WNjQsJt5E4jqyO/M50yOiNHF9sQwf6iyuf/1G6WP8p13yDbykcHE6rFzAsV6bYTuw2caNywmFJAduJ3Zn2CYC+5bax8/1LeUzjRrm8kJndtjPCE3sNDGcwUkBndgfYzHdIM4A4hY3Lewhp4WxkvM7XoL72E28gM6sZ9jPuqNTuJmPZHAOxsFhXERxi4z9k7ENh4gDaXUIfKeCN9ABtI/BANrhEI8jLguA8QCeXBDtc2BZ8t1wTZzaHATGxCct2eC3WcFu4g43ASmfMuC2JbQBtOuCE7WNE8xcXmIztLGBCPylwXOW1wSxxANrAs7O6djRDOCx7EZyWBNnjK7v/wCrKZqyildrp//Z;" vertex="1" parent="1">
          <mxGeometry x="310" y="130" width="141.17" height="140" as="geometry" />
        </mxCell>
        <mxCell id="NefAcdebUp0YX1UbjI-h-3" value="" style="shape=image;verticalLabelPosition=bottom;labelBackgroundColor=default;verticalAlign=top;aspect=fixed;imageAspect=0;image=data:image/jpeg,/9j/4AAQSkZJRgABAQEASABIAAD/4gIoSUNDX1BST0ZJTEUAAQEAAAIYAAAAAAIQAABtbnRyUkdCIFhZWiAAAAAAAAAAAAAAAABhY3NwAAAAAAAAAAAAAAAAAAAAAAAAAAAAAAAAAAAAAQAA9tYAAQAAAADTLQAAAAAAAAAAAAAAAAAAAAAAAAAAAAAAAAAAAAAAAAAAAAAAAAAAAAAAAAAAAAAAAAAAAAlkZXNjAAAA8AAAAHRyWFlaAAABZAAAABRnWFlaAAABeAAAABRiWFlaAAABjAAAABRyVFJDAAABoAAAAChnVFJDAAABoAAAAChiVFJDAAABoAAAACh3dHB0AAAByAAAABRjcHJ0AAAB3AAAADxtbHVjAAAAAAAAAAEAAAAMZW5VUwAAAFgAAAAcAHMAUgBHAEIAAAAAAAAAAAAAAAAAAAAAAAAAAAAAAAAAAAAAAAAAAAAAAAAAAAAAAAAAAAAAAAAAAAAAAAAAAAAAAAAAAAAAAAAAAAAAAAAAAAAAAAAAAFhZWiAAAAAAAABvogAAOPUAAAOQWFlaIAAAAAAAAGKZAAC3hQAAGNpYWVogAAAAAAAAJKAAAA+EAAC2z3BhcmEAAAAAAAQAAAACZmYAAPKnAAANWQAAE9AAAApbAAAAAAAAAABYWVogAAAAAAAA9tYAAQAAAADTLW1sdWMAAAAAAAAAAQAAAAxlblVTAAAAIAAAABwARwBvAG8AZwBsAGUAIABJAG4AYwAuACAAMgAwADEANv/bAEMABAMDBAMDBAQDBAUEBAUGCgcGBgYGDQkKCAoPDRAQDw0PDhETGBQREhcSDg8VHBUXGRkbGxsQFB0fHRofGBobGv/bAEMBBAUFBgUGDAcHDBoRDxEaGhoaGhoaGhoaGhoaGhoaGhoaGhoaGhoaGhoaGhoaGhoaGhoaGhoaGhoaGhoaGhoaGv/CABEIA4QDbgMBIgACEQEDEQH/xAAcAAEBAQADAQEBAAAAAAAAAAAABwgEBQYDAgH/xAAUAQEAAAAAAAAAAAAAAAAAAAAA/9oADAMBAAIQAxAAAAG/AAAAAAAAAAAAAAAAAAAAAAAAAAAAAAAAAAAAAAAAAAAAAAAAAAAAAAAAAAAAAAAAAAAAAAAAAAAAAAAAAAAAAAAAAAAAAAAAAAAAAAAAAAAAAAAAAAAAAAAAAAAAAAAAAAAAAAAAAAAAAAAAAAAAAAAAAAAAAAAAAAAAAAAAAAAAAAAAAAAPx/D6PmPo+Y+j5j6PmPo+Y+j5j6PmPo+Y+j5j6PmPo+Y+j5j6PmPo+Y+j5j6PmPo+Y+j5j6PmPo+Y+j5j6PmPo+Y+j5j6PmPo+Y+j5j6PmPo+Y+j5j6PmPo+Y+j5j6Px+wAAAAAAAAAAAAAAAAAABw+RHzg9J5q+EoWcRhZxGFnEYWcRhZxGFnEYWcRhZxGFnEYWcRhZxGFnEYWcRhZxGFnEYWcRhZxGFnEYWcRhZxGFnEYWcRhZxGFnEYWcRhZxGFnEYWcRhZxGFnEYWcRhZxGFnEp7r2sONPAAAAAAAAAAAAAAAAAAfz++cOhhfO9yerof8/oAAAAAAAAAAAAAAAAAAAAAAAAAAAAAAAA/P6lJ4j0XMFfAAAAAAAAAAAAAAAAAPkcWAeinh3Oj+t7kAAAAAAAAAAAAAAAAAAAAAAAAAAAAAAAAHyOkh39tx3slr8gK+AAAAAAAAAAAAAAAAD+Tjvs/HDvvlbIAAAAAAAAAAAAAAAAAAAAAAAAAAAAAAAAAJH7iKnt6v8/oJBX5AV8AAAAAAAAAAAAAAADrOZEjz/wB+h0wc/wCgAAAAAAAAAAAAAAAAAAAAAAAAAAAAAAAAPh944ePu3i6iAJBX5AV8AAAAAAAAAAAAAAD8/rx55+McmqHqvYAAAAAAAAAAAAAAAAAAAAAAAAAAAAAAAAAOOedkHEvZ2/6ABIK/ICvgAAAAAAAAAAAAAHGOBnzv/LHoNBcPngAAAAAAAAAAAAAAAAAAAAAAAAAAAAAAAACLe6lR7qlfz+gACQV+QFfAAAAAAAAAAAAAP4fmU+jgZ+NGeYqAAAAAAAAAAAAAAAAAAAAAAAAAAAAAAAAAA4nLh55nQPkaGAAAJBX5AV8AAAAAAAAAAAADo+Znw4XpJ5dSk/2figJ+KAn4oCfigJ+KAn4oCfigJ+KAn4oCfigJ+KAn4oCfigJ+KAn4oCfigJ+KAn4oCfigJ+KAn4oCfigJ+KAn4oCfigJ+KAn4oCfigJ+KAn4oCfigJ+KAn4oDwXcHAmnT6GOw/oAAAJBX5AV8AAAAAAAAAAAAHiMuahzMd81oMltaDJbWgyW1oMltaDJbWgyW1oMltaDJbWgyW1oMltaDJbWgyW1oMltaDJbWgyW1oMltaDJbWgyW1oMltaDJbWgyW1oMltaDJbWgyW1oMltaDJbWgyW1oMltaDJbWgyW1oMltaDJbWgyW1oMndjqCEHt6B0/cAAAACQV+QFfAAAAAAAAAAAAB4bM2mczG0gAAAAAAAAAAAAAAAAAAAAAAAAAAAAAAAAAIRd4QV/uOn7gAAAASCvyAr4AAAAAAAAAAAAPDZm0zmY2kAAAAAAAAAAAAAAAAAAAAAAAAAAAAAAAAABCLvCCv9x0/cAAAACQV+QFfAAAAAAAAAAAAB4bM2mczG0gAAAAAAAAAAAAAAAAAAAAAAAAAAAAAAAAAIRd4QV/uOn7gAAAASCvyAr4AAAAAAAAAAAAPDZm0zmY2kAAAAAAAAAAAAAAAAAAAAAAAAAAAAAAAAABCLvCCv8AcdP3AAAAAkFfkBXwAAAAAAAAAAAAeGzNpnMxtIAAAAAAAAAAAAAAAAAAAAAAAAAAAAAAAAACEXeEFf7jp+4AAAAEgr8gK+AAAAAAAAAAAADw2ZtM5mNpAAAAAAAAAAAAAAAAAAAAAAAAAAAAAAAAAAQi7wgr/cdP3AAAAAkFfkBXwAAAAAAAAAAAAeGzNpnMxtIAAAAAAAAAAAAAAAAAAAAAAAAAAAAAAAAACEXeEFf7jp+4AAAAEgr8gK+AAAAAAAAAAAADw2ZtM5mNpAAEfKZy8H9ubidP3AAAeRmxd0IF3RLil3QgXdCBd0IF3QgXdEuKXdCBd0IF3QjlFtQgXdCBd0IF3QgXdCOUW1CBd0IF3QgXdCBd0I9QU8AAAAACEXeEFf7jp+4AAAAEgr8gK+AAAAAAAAAAAADw2ZtM5mNpAAZ+0D8DBH21P35y/TgABx/hzxwHPHX/AN544DnjgOeOA544Dnjr/wC88cBzxwHPHA/nYDgOeOA544DnjgOeOB/OwHAc8cBzxwHPHAc8cD98wAAAAAAIRd4QV/uOn7gAAAASCvyAr4AAAAAAAAAAAAPDZm0zmY2kAAAAAAAAAAAAAAAAAAAAAAAAAAAAAAAAABCLvCCv9x0/cAAAACQV+QFfAAAAAAAAAAAAB4bM2mczG0gAAAAAAAAAAAAAAAAAAAAAAAAAAAAAAAAAIRd4QV/uOn7gAAAASCvyAr4AAAAAAAAAAAAPDZm0zmY2kAAAAAAAAAAAAAAAAAAAAAAAAAAAAAAAAABCLvCCv9x0/cAAAACQV+QFfAAAAAAAAAAAAB4bM2mczG0gAPLephpLOXOxubuJZUwAA8XLjQrPQ0Kg3DNCs9DQrPQ0Kz0NCs9DQqC8Q0Kz0NCs9DQrPXLL0z0NCs9DQrPQ0Kz0NCs9csvTPQ0Kz0NCs9DQrPQ0Kz16wrIAAAAAEIu8IK/3HT9wAAAAJBX5AV8AAAAAAAAAAAAHhszaZzMbSAA67sRnfmXwcfkAAAAAAAAAAAAAAAAAAAAAAAAAAAAAAhF3hBX+46fuAAAABIK/ICvgAAAAAAAAAAAA8NmbTOZjaQAAAAAAAAAAAAAAAAAAAAAAAAAAAAAAAAAEIu8IK/3HT9wAAAAJBX5AV8AAAAAAAAAAAAHhszaZzMbSAAAAAAAAAAAAAAAAAAAAAAAAAAAAAAAAAAhF3hBX+46fuAAAABIK/ICvgAAAAAAAAAAAA8NmbTOZjaQAADr/ANnNAAAAAAAAAAAAAAAAAAAAAAAAAAAAAAhF3hBX+46fuAAAABIK/ICvgAAAAAAAAAAAA8NmbTOZjaQAE7okdM2cjrv6bQ9bO6IAAHjJYaGZ5GhkF4ZoZnkaGZ5GhmeRoZnkaGQXhmhmeRoZnkaGZ55hemeRoZnkaGZ5GhmeRoZnnmF6Z5GhmeRoZnkaGZ5GhmefWlZAAAAAAhF3hBX+46fuAAAABIK/ICvgAAAAAAAAAAAA8NmbTOZjaQAH4/Ym3L98AAAAAAAAAAAAAAAAAAAAAAAAAAAAAAEIu8IK/wBx0/cAAAACQV+QFfAAAAAAAAAAAAB4bM2mczG0gAAAAAAAAAAAAAAAAAAAAAAAAAAAAAAAAAIRd4QV/uOn7gAAAASCvyAr4AAAAAAAAAAAAPDZm0zmY2kAAAAAAAAAAAAAAAAAAAAAAAAAAAAAAAAABCLvCCv9x0/cAAAACQV+QFfAAAAAAAAAAAAB4bM2mczG0gAAAAAAAAAAAAAAAAAAAAAAAAAAAAAAAAAIRd4QV/uOn7gAAAASCvyAr4AAAAAAAAAAAAPDZm0zmY2kAAAAAAAAAAAAAAAAAAAAAAAAAAAAAAAAABCLvCCv9x0/cAAAACQV+QFfAAAAAAAAAAAAB4bM2mczG0gAAAAAAAAAAAAAAAAAAAAAAAAAAAAAAAAAIRd4QV/uOn7gAAAASCvyAr4AAAAAAAAAAAAPDZm0zmY2kAAAAAAAAAAAAAAAAAAAAAAAAAAAAAAAAABCLvCCv9x0/cAAAACNVmRFpAAAAAAAAAAAAB4bM2mczG0gAAHmeyO0AAAAAAAAAAAAAAAAAAAAAAAAAAAAAAhF3hBX+46fuAAAAdETiqTmrAAAAAAAAAAAAAHhszaZzMbSAABhaiX/ALA7YAAAAAAAAAAAAAAAAAAAAAAAAAAAAACEXeEFf7jp+4AAAER9t+D3H7AAAAAAAAAAAAADw2ZtM5mNpAAAAAAAAAAAAAAAAAAAAAAAAAAAAAAAAAAQi7wgr/cdP3AAA/P6lZ0lv6DvwAAAAAAAAAAAAADw2ZtM5mNpAAAzN7Lx3sC0AAAAAAAAAAAAAAAAAAAAAAAAAAAAAAQi7wgr/cdP3AABwJR/awc0AAAAAAAAAAAAAAHhszaZzMbSAAAAAAAAAAAAAAAAAAAAAAAAAAAAAAAAAAhF3hBX+46fuAB5z0cPO+qX4/YAAAAAAAAAAAAAAB4bM2mczG0gAAeZ7LFVENSgAAAAAAAAAAAAAAAAAAAAAAAAAAAAAQi7wgr/AHHT9wD4niPv4e3AAAAAAAAAAAAAAAAHhszaZzMbSAAB5nsO2AAAAAAAAAAAAAAAAAAAAAAAAAAAAAACEXeEFf7jp+4EoosuKR3YAAAAAAAAAAAAAAAAeGzNpnMxtIAAAAAAAAAAAAAAAAAAAAAAAAAAAAAAAAACEXeEFf7jp+vJ9YJ5TAAAAAAAAAAAAAAAAADw2ZtM5mNpAAAAAAAAAAAAAAAAAAAAAAAAAAAAAAAAAAQi7worsm9L3h7AAAAAAAAAAAAAAAAAAHi8y7Hz0aMSUVpJRWklFaSUVpJRWklFaSUVpJRWklFaSUVpJRWklFaSUVpJRWklFaSUVpJRWklFaSUVpJRWklFaSUVpJRWklFaSUVpJRWklFaSUVpJRWklFaSUVpJRWklFaSUVqOcnwR6m3dT2wAAAAAAAAAAAAAAAAAAAAAAAAAAAAAAAAAAAAAAAAAAAAAAAAAAAAAAAAAAAAAAAAAAAAAAAAAAAAAAAAAAP4f1wBz3AHPcb4HYOHzAA+HHOe4vyOe4H0OWA4P8Oe4A57hfs5TgDnvj9gcU5TgDnvj9gcc5DgDnuH/DmgOJ8znuPyA4nlz2bq/wCnZgPhxznuv7APlxTnuF+TnuB+zmAHAOe4H8Owfj9gAAAAAAAAAAAAAAAAAAD8fsRvzdZ8ed/xKX8SS9l7zqTN2uc51o9kfIjHmvUf0q0YvM3PM+j5dAM6XXy/UHp8+axziU78UMQexfrtDJNzmWkCUeavnXHD++bdUGSbnMtIEo81fOuOHzM0aoM2ew+ntzmZM2fGCiejynqY62EaPnJ7jyns83nqKz2o8TFNQzwoYOJm7Tnmjx9VgN+Phn7RErPbSa7zc8Z7D90giHoadnA0f5P9eqMpW6baIId31TzaaSAAAAAAAAAAAAAAAAAAAB5CbUmYlUm9CnJdfL+o8ucKV2mFmlPAe4nZ3nhqRNy0TekTc8x6vqvRk+r0Up57XMWncwF26Lt+jOz9x4f3Bm/SGb9IAGY9DQW4kO0hm/SABmPQ0FuJP/b+I9ueomNOmI8le84Gj5zz+Adn4X2flixg+H56vMhrP69R24BmLTMj9Ad1w/OVUTekTcUib0geB9940nt0gV9MxV2WWo8h9uF1hcgAAAAAAAAAAAAAAAAAAAeQ8f6jyZY+NyfifLop97k7Dyff+nJH6qC6xOgm/vpyXCb0iWHZ0CdUU6vPFE6wtWcdE5uNLA4f0kNeM76QzTpYOLGDxWoptTTN+kM06WDixg8VqKbU0kHt597c9lMadGCz8TljKdY9LIS+QPRsJLs8F70Z40Pm40iQ8uAOBnvSeZyh1Xou9E3pEyPrSJpSj+xz000Pf0n8/gz5ojNelBlXSWcDUn7AAAAAAAAAAAAAAAAAAB+P2Jj1tgEz4FbHgfhRRMqaHS9v+xMuFWh0nhKsJJyakJ3Q/wCjw/kbMJh8qoJR7nvhG+1p4lPuu8Doe+Eb7WniU+67wOq7USTm04eT8TYh1Hbg6PvABPvjRxO/R+hCQ14AOo7cAcWb1ISb91YeF9z/AEPCe7Ea7qliT0jsAAAAAAAAAAAAAAAAAAAAAAAAAAAAAAAAAAAAAAAAAAAAAAAAAAAAAAAAAAAAAAAAAAAAAAAAAAAAAAAAAAAAAAAAAAAAAAAAAAAAAAAAAAAAAAAAAB//xAAzEAAABQIDBgcBAQACAgMAAAAAAwQFBgIWAQc1EhQVFzNAECAwNDZQYBETJTEhgCY3kP/aAAgBAQABBQL/APR7GrDAbdI26Rt0jbpG3SNukbdI26Rt0jbpG3SNukbdI26Rt0jbpG3SNukbdI26Rt0jbpG3SNukbdI26Rt0jbpG3SNukbdI26Rt0jbpG3SNukbdI26Rt0jbpG3SNukbdI26Rt0jbpG3SNukbdI26Rt0jbpG3SNukbdI26Rt0jbpG3SNukbdI26Rt0jbpG3SNukbdI2sPqVB9JBbjIa8DbhPFwni4TxcJ4uE8XCeLhPFwni4TxcJ4uE8XCeLhPFwni4TxcJ4uE8XCeLhPFwni4TxcJ4uE8XCeLhPFwni4TxcJ4uE8XCeLhPFwni4TxcJ4uE8XCeLhPFwni4TxcJ4uE8XCeLhPFwni4TxcJ4uE8XCeLhPFwni4TxcJ4uE8XCeLhPFwni4TxcJ4uE8XCeLhPFwni4TxcJ4uE8XCeLhPCN9UHHu0mXMav6aurCimQO/9BBBq1QkjKAgi32wW+2C32wW+2C32wW+2C32wW+2C32wW+2C32wW+2C32wW+2C32wW+2C32wW+2C32wW+2C32wW+2C32wW+2C32wW+2C32wW+2C32wW+2C32wW+2C32wW+2C32wW+2C32wW+2C32wW+2C32wW+2C32wW+2C32wW+2C32wW+2C32wW+2C32wW+2C32wW+2C32wW+2C32wW+2C32wW+2C32wW+2C32wW+2C32wW+2BTuMeRvRZhkb+mfXXAgs42o8yNMm4Efgv+g+Odb24TwnBNG/pXRfglKXrKlRsVZP9q/wcueP8i4kz/wAwzG0T6RUopTlvLlipNY2mp1VFl0lUfgnZyoakTSgNfHGijAujMbRPozK8KKX9328UiUxeqbW8ttS/gqscKcHhwMfXJnbaGtIMxtE+ixx/gfnbAqgyuo8yOs2Dan/By542aYkz/wCdHhmNon0Ts40pSlqrFSbFWT+/hHl0oakTI3GPC6mnCjDwzG0T6FYqpTFO7jUqNj7Pi6KaacKKfwVdeBVDmuNkDo1t9DYj8cxtE+gNMwLpfnbE2pAiNclSFEWgTfg5c8CKM+7leTMbRO/xx/mD+7bFOO2oNYGelrS/g3x2waUUfa6nZbhh/MPJmNonfvDlglKVqalBkVZNjD8GaZSSWuVHyJ1bUFDck8uY2id8uV0pinVfUqNjbLxE/DDDDD8HLnj/AEqirPuhHmzG0TvTjcCqH11xOrbG8x0VpEpaMj8G/u+DUjjjTi5K8MP558xtE7zHHZwkDv8AzCmmtUcyNNDUl/BnHUJylBx8jdUCItAl8+Y2id49OeCYpSfUeZF2Xdi/wkteP9zYw0bgn9DMbRO7cVtKUpyXYqjYwy76d/1+EkLvwpHGGjFcp9HMbRO6VqaUpT0/0qK0hhKg5PJmtMTdzeLubxdzeLubxdzeLubxdzeLubxdzeLubxdzeLubxdzeLubxdzeLubxdzeLubxdzeLubxdzeLubxdzeLubxdzeLubxdzeLubxdzeLubxdzeLubxdzeLubxdzeLubxdzeLubxdzeLubxdzeLubxdzeLubxdzeLubxdzeLubxdzeLubxdzeLubxdzeLubxdzeLubxdzeLubxdzeLubxdzeLubxdzeLubxdzeLubxTLG+rHjjdiVXUokbsjSFoU/o5jaJ3Umx/iBMQWbRb6kW+pFvqRb6kW+pFvqRb6kW+pFvqRb6kW+pFvqRb6kW+pFvqRb6kW+pFvqRb6kW+pFvqRb6kW+pFvqRb6kW+pFvqRb6kW+pFvqRb6kW+pFvqRb6kW+pFvqRb6kW+pFvqRb6kW+pFvqRb6kW+pFvqRb6kW+pFvqRb6kW+pFvqRb6kW+pFvqRb6kW+pFvqRb6kW+pFvqRb6kW+pFvqRb6kW+pFvqRb6kW+pFMdVV1SdjTseEXa6UaL0sxtE7qT+wRdL8LmJ1mrS/SzG0TupP7BF0vwuYnWatL9LMbRO6k/sEXS/C5idZq0v0sxtE7qT+wRdL8LmJ1mrS/SzG0TupP7BF0vwuYnWatL9LMbRO6k/sEXS/C5idZq0v0sxtE7qT+wRdL8LmJ1mrS/SzG0TupP7BF0vwuYnWatL9LMbRO6k/sEXS/C5idZq0v0sxtE7qT+wRdL8LmJ1mrS/SzG0TupP7BF0vwuYnWatL9LMbRO6k/sEXS/C5idZq0v0sxtE7qT+wRdL8LmJ1mrS/SzG0TupP7BF0vwuYnWatL9LMbRO6k/sEXS/C5idZq0v0sxtE7qT+wRdLzHuKNLUUeWfT97mJ1mrS/SzG0TupP7BF0vLN5Aa2FVVY11NropalDYupckHlkD3SwI+ZZQ5llDmWUFOYZaZTzLKHMsocyyhzLKHMsocyyhzLKHMsocyygbmGWVRzLKHMsocyyhzLKHMsocyygozDLT18yyhzLKHMsocyyhzLKHMsocyyhzLKHMsoVZhF4JuZZQ5llDmWUOZZQ5llDmWUOZZQ5llDmWUGGYUPq71cxOs1aX6WY2id1J/YIul5cxG0yowUUVGVx5DU2s3lMKoNw3JMNyTDckwxRp8RuSYbkmG5JhuSYbkmG5JhuSYbkmG5JhuacbkmG5JhuSYbkmG5JhuSYbmnG5JhuSYbkmG5JhuSYbkmG5JhuSYbkmG5p/5uSYbkmG5JhuSYbkmG5JhuSYbkmG5JhQmJKq9XMTrNWl+lmNondSf2CLpeUwug2hTAmhRW1xhtaK/vcxOs1aX6WY2id1J/YIul+FzE6zVpfpZjaJ3Un9gi6X4XMTrNWl+lmNondSf2CLpfhcxOs1aX6WY2id1J/YIul+FzE6zVpfpZjaJ3Un9gi6X4XMTrNWl+lmNondSf2CLpfhcxOs1aX6WY2id1J/YIul5Xx4KZEK6Wuy0xtmTohMbV5Toi+8zE6zVpfpZjaJ3Un9gi6XlzIJMqS+EBKMKYfLJDXMlDv8ANBv80G/zQK10upVb/NBv80G/zQb/ADQb/NBv80G/zQb/ADQb/NAcul2Be/zQb/NBv80G/wA0G/zQb/NApXS6kzf5oN/mg3+aDf5oN/mg3+aDf5oN/mg3+aCpdLt13+aDf5oN/mg3+aDf5oN/mg3+aDf5oN/mgjqqQnL/AFcxOs1aX6WY2id1J/YIul5ViMlenW5cG/6N2XWwYUVQQX95mJ1mrS/SzG0TupP7BF0vwuYnWatL9LMbRO6k/sEXS/C5idZq0v0sxtE7qT+wRdL8LmJ1mrS/SzG0TupP7BF0vwuYnWatL9LMbRO6k/sEXS/C5idZq0v0sxtE7qT+wRdL8LmJ1mrS/SzG0TupP7BF0vMoXJkoIVEKcPvcxOs1aX6WY2id1J/YIul5Ze+VsreccYoMSLD0J0dduNNf3mYnWatL9LMbRO6k/sEXS8uYDaarQD/sQxuMbWTyyRnNe0PL1eOXq8cvV4VwRaoVcvV45erxy9Xjl6vHL1eOXq8cvV45erxy9Xg6CLTC+Xq8cvV45erxy9Xjl6vHL1eFMEWnGcvV45erxy9Xjl6vHL1eOXq8cvV45erxy9XiqCLcUvL1eOXq8cvV45erxy9Xjl6vHL1eOXq8cvV4jsVUsq/1cxOs1aX6WY2id1J/YIul5ccMMcF0IaVpjbD2ttM+9zE6zVpfpZjaJ3Un9gi6X4XMTrNWl+lmNondSf2CLpfhcxOs1aX6WY2id1J/YIul+FzE6zVpfpZjaJ3Un9gi6X4XMTrNWl+lmNondSf2CLpfhcxOs1aX6WY2id1J/YIul+FzE6zVpfpZjaJ3Un9gi6X4XMTrNWl+lmNondSf2CLpfhcxOs1aX6WY2id1J/YIul+FzE6zVpfpZjaJ3Un9gi6X4XMTrNWl+lmNondSf2CLpfhcxOs1aX6WY2id1J/YIul+FzE6zVpfpT8zBQm7qT+wRdL8LmJ1mrS/RPPoTExogx8dO6k/sEXS/C5idZq0v0ZYqMc1qNKUhTd1J/YIul5l783NlaNwTOJX3uYnWatL9B1ci2lvhrcZ/l3cn9gi6XmcP99+y/8A9+N/e5idZq0v0HXGqUSLDDCnDu5P7BF0vMvYG1zrRNyZuK+9zE6zVpfnlD1wZtirLwZt7yT+wRdL8LmJ1mrS/N/0G/8A+WSPvZP7BF0vwuYnWatL80zczC07O2ltDf3sn9gi6Xmd54urVRKWnOqj73MTrNWl+VUpLRp4qnMdnDvpP7BF0vM7wNdQqiUSOalH3uYnWatL8spPNeXJOnoSkd9J/YIul+FzE6zVpfkeXQtnb4c11kJ+/k/sEXS/C5idZq0vyLcbrk2GGFOHfyf2CLpeZe/NzZWjcEziV97mJ1mrS/GVvGLS2xhnwZmr6CT+wRdLzOH++/Zf/wC/G/vcxOs1aX4V1YUUtNNUnkP0Mn9gi6XmXsDa51om5M3Ffe5idZq0vwmK82rBqbi2pB9DJ/YIul+FzE6zVpYWrCkCWJIzHFV9FJ/YIul+FzE6zVpYkh9T68kE0JifopP7BF0vwuYnWatLfXahlbYc1Vo0X0cn9gi6X4XMTrNWlm/2WSX6ST+wRdL8LmFhjUok7liytEcZ8GRt+kklGJiFvpxMp/CzCukt3Yy8ZI+/SmFYG0oWF9Y1nEJeOIS8cQl44hLxxCXjiEvHEJeOIS8cQl44hLxxCXjiEvHEJeOIS8cQl44hLxxCXjiEvHEJeOIS8cQl44hLxxCXjiEvHEJeOIS8cQl44hLxxCXjiEvHEJeOIS8cQl44hLxxCXjiEvHEJeOIS8cQl44hLxxCXjiEvHEJeOIS8cQl44hLxxCXjiEvHEJeOIS8cQl44hLxxCXjiEvHEJeOIS8cQl44hLxxCXjiEvHEJeOIS8cQl44hLxxCXjiEvHEJeOIS8cQl4e08hfVbehKbEf8A7B76mG+phvqYb6mBZ5ZwxWJ8AWoJNx8TDaCsN9TD/cv/AD31MN9TChSSZj4VKyKKt9TDfUw31MKFRBlRh5ZI31MN9TCgygzDwMPLJG+phvqYUGUGYeBhtBWG+phvqYVKSaMKFJJmPgYoKKx31MCzaDcAceUmLxlTNTUlcEq6kxYQSp8K66S6d9TDBYnx8KqsKcN9TClQTXhvqYb6mFCkkzHxxVp6cd9TDfU2Iwxwqw+oxw/uEtjSDBphcdbnVtsliB8FZjaIShrbFEoY0FbQ0GVx198ZnjU5HQViSuFGCFLSnmkdRJW2KRlrWsh8FZjqVvF4Ue3LinJE5R1udMImzJnF5sliFUIZKsELBgwzBY3JXHB/ZCEUjwhLH/DoE3g9e+RExrdE7ulWNyVxwf2QhFI8ISx/w6BN4PXvkRMa3RO7pVKMhaXN48lbC4tF0GLWoaUKohWWYwPbK7FPKALGxG4BvjKa706UlIXI5CUwpWuNHvWJLckT0OMZRLsGffSJp4HEFqS5tHSmyuINbaYzAwug2iVsKYx6RtCJAnmkdQpm2JRdtcWg6CMpmCiPPDHhHJaW8YhdHWxwEVZEy59rhjJWHCHqGymIyep7o+olPx7LnRBXXTRSUkJJUSTQZO3f6xiMOPE2UV100UoaKlbJlvpYnXxuE/GRM6Ka45l/jVwAQj5V4VJ06o0Sz5n4K0pS5MzqTYrJhLPmfgrSlLkzOpNismGY2iRvQQjbSXZyaFyiHvdFVJlATfNa66S6GWmqVSnxdGkw1/8AF9buKtWXbh/MfBo/5WTCdfG4L8b8J01cPWx904u1CHfL/Bjp/wAp79RKfj0FdkKBouNoEplCJUkEk0FIjocItAFlSRwEsU10trimoRxrLfSxOvjcYk7U3MdU3Y6cHJYtmODagLa0Iii1OhktxtAcpg2JE0R+OCWfM/HMUjAt3bD8VTdLPmfjmKRgW7th+KpuzG0SN6CI78hmEe4wjgkg8E3zWVH4p49luR/EHhUbRRjvBQprpr8jnTbMxwxwxwfnDhbTGG/hrKJ18bgvxvwmRGCiO5bHY1JgwuaRpk97MQUzQk/CKx01rq+olPx6DMyFwabXZxKIqiRpBJNBYtElFFTDKCjKTiy/+Vlb7omW+lidfG4i1IFMePijOopdWpyiWEcfqH5EIsgTOEktdnDnDGxSmiPxwSz5n45kVYb+yU40M0s+Z+OZFWG/slONDNmNokb0ER35CJqw1N6mMvlL4gTfNZgX/pG8uasOD+C1oQuONbGVhLUTalbaPHMFt3lsh7jxFjkP/JvXhOvjcF+N+Erqwoj2WlOP8EYSkLJXXHWkwOEJKpwjUsU799RKfj2XOiA0qg8s04sgSTQWLRJw278yRd+ooi0WRVpGl90TLfSxOvjcJ+MheVSehy6MqweBCPlXhTQUlKKMpOLlnzPxef7JZdTThRTLPmfi8/2Sy6mnCinMbRI3oIjvyEHkFqiTKVEIf2xSWtla5NgtRwFXihcvE7/7L8ipNQsTQpVU0vkWw4iv8J18bgvxvwzCcKSGyFN2LeyiHfL/AAnGGCaSYf8AnD6eWG0Ex7LmunFnFddJVGDvTIpTKDMCo/GVFKhhropMoQtJ9EhEjOpIYcuDqcUQnp9BbDCDKa42JbJU6FDAWUxGRVjhThBjqKpN4S2QU10kl0kEyw6i8QceWnofphiqETjODISJYdReIOPLT0P0wxVCJxnBkJGY59GDZFjqD2AR1eVVKvCQMpb43wAkxO9CXsB5SqOyVO+E+FKgtXmIFU+wTO/jO26tK7tCHBsbPCeV00R6CVYVR0O8sb2mhoZVcncf5/BVjhThClJZkpC9ySthKMg6YSX6fH/zguh+DkCsv0yeqmI10A6CEqQxRVKwnuUW4tihiHDPCltJpcsf+l0R4kEsFIQm0ozcESyEFuBieCEpMTYb/vgghjU31hzYKnSqnLtFRjTD8aAbC8FGCCCIkCxxQmLcK8vUZteEP2aMIEgrrQNKJrpDihMW4V5eoza8Ifs0YQJBXWgaUTXSFqcxUUqgpC01DD8G0LWk1cnLy9SEmIEpiMnwpbSaHPwcYg3LzKGV6TYVx5YtwbmVC1UhTA0ih08VreSux8DaMTClsMoca08GKSCuEEnhDEmlvx8HKPVueNGXaKiq0q9miBN3+iRGQhJ/9vv/xAAUEQEAAAAAAAAAAAAAAAAAAACw/9oACAEDAQE/AUP/AP/EABQRAQAAAAAAAAAAAAAAAAAAALD/2gAIAQIBAT8BQ/8A/8QAURAAAAQBBAoMCwYFBQEAAwAAAAECAwQFERIxEyEzNDVxcnSSkxAiMEBBUWBhsbLC0hQgIzJCUFKiweHwYnOBkaHRBhUkQ4NTgqOz8YBEkOL/2gAIAQEABj8C/wD2PWzFYrFYrFYrFYrFYrFYrFYrFYrFYrFYrFYrFYrFYrFYrFYrFYrFYrFYrFYrFYrFYrFYrFYrFYrFYrFYrFYrFYrFYrFYrFYrFYrFYrFYr9UmpQMmzFZisxWYrMVmKzFZisxWYrMVmKzFZisxWYrMVmKzFZisxWYrMVmKzFZisxWYrMVmKzFZisxWYrMVmKzFZisxWYrMVmKzFZisxWYrMVmKzFZisxWYrMVmKzFZisxWYrMVmKzFZisxWYrMVmKzFZhDaEuOLUdpKSDCYhlhcMqamkjM3Ez8fBx8dXqecwbaDCWmipLWYSl5hLznpKMXm2LzbF5ti82xebYvNsXm2LzbF5ti82xebYvNsXm2LzbF5ti82xebYvNsXm2LzbF5ti82xebYvNsXm2LzbF5ti82xebYvNsXm2LzbF5ti82xebYvNsXm2LzbF5ti82xebYvNsXm2LzbF5ti82xebYvNsXm2LzbF5ti82xebYvNsXm2LzbF5ti82xebYvNsXm2LzbF5ti82xebYvNsOxDbCG+AiKtZ8Q8PiVUnoyOIzPmJKy/f1OaEHbE9ZmLPEJ/qHC0S5CJRDTqYQdFki9L7QgmUnOTb6EkeJCvUx27YMzBRsUnaJuZHw8/ITwCHPyjheVPiTxfj0Yx4dEJ+6L4hjOk9VXqU1GYMiO0JlTkwnz1BKGymSmouQa3121VNp9pXEFLiDNSaVN5YJKCmSQYzpPVV6knMG2gwhlop1q/QIZa4Kz4z5BmajmIgSYcjNsjoMp+IS0m2utZ8Z7DGdJ6qvUhoQY41GKbpf1Dnnc3NyE/l0OrbKu58Rez9fEeGxBbZVzxbLGdJ6qvUZ27YNRmCjolP3SfjyEU8e2cPatp41A3IkzW2SqTqj9IESbRFssZ0nqq9RGozB27QpOXu35/PzAkptEXINS3DopSU5mfAEkyR0J6DCebjCGUV+kfGfiMZ0nqq9QzmDQg7QSy1Wqs+Ighhkpkp5Cfy+HVzvmXVHhkQXlHPMLiLxWM6T1VeoLYNCDEySpLUdoht5jfX558hDcKY317Voj4+PEDdiNs0lVJwz9JQmLxWM6T1VeoDIjtgzMFGxSdsdyI+AuPkItx1RIQgp1GfAQKxEcxnRaT7KQhhrgrPjPxmM6T1Vb/MzMHbtCzPl/TN+8YmLkJ/L4dW1TbePjP2R4U+nyzpbW1Unx2M6T1Vb+NRg0IO0Est1emr2SCGWCmQkuQhqTN4Q5aaL4/gLPETqZbOdRn6StwYzpPVVv420GEoQRqWs5iIEmt1VtauQi3XlUG0FOoxtSMqZzIT7CQ2wzUkvz3BjOk9VW/TSR2wajHhkSXlVltCMvNLkL4BDq8k2flT41cX4dOIWd8vLu+6W4sZ0nqq34du2Dt2h4VEF5Bs7X2j5C+TP+pdtN83OPCYic2Wz4fSVuTGdJ6qt9mtYURLIiLnCSddS236RmoIaadaShJTFtxdm9MXZvTF2b0xdm9MXZvTF2b0xdm9MXZvTF2b0xdm9MXZvTF2b0xdm9MXZvTF2b0xdm9MXZvTF2b0xdm9MXZvTF2b0xdm9MXZvTF2b0xdm9MXZvTF2b0xdm9MXZvTF2b0xdm9MXZvTF2b0xdm9MXZvTF2b0xdm9MXZvTF2b0xdm9MXZvTF2b0xdm9MXZvTF2b0xdm9MXZvTF2b0xdm9MXZvTF2b0xdm9MXZvTF2b0xdm9MXZvTF2b0xdm9MXZvTF2b0xdm9MXZvTF2b0xdm9MXZvTF2b0xd2i/wB4W4mMYVQTSMkuEZ/kQnqNy0RewgIYZKZKNyYzpPVVvtQNTiZzpcYwdE6pQwdE6pQwdE6pQwdE6pQwdE6pQwdE6pQwdE6pQwdE6pQwdE6pQwdE6pQwdE6pQwdE6pQwdE6pQwdE6pQwdE6pQwdE6pQwdE6pQwdE6pQwdE6pQwdE6pQwdE6pQwdE6pQwdE6pQwdE6pQwdE6pQwdE6pQwdE6pQwdE6pQwdE6pQwdE6pQwdE6pQwdE6pQwdE6pQwdE6pQwdE6pQwdE6pQwdE6pQwdE6pQwdE6pQwdE6pQwdE6pQwdE6pQwdE6pQwdE6pQwdE6pQwdE6pQwdE6pQwdE6pQwdE6pQwdE6pQwdE6pQwdE6pQwdE6pQwdE6pQwdE6pQwdE6pQwdE6pQwdE6pQwdE6pQwdE6pQwdE6pQwdE6pQwdE6pQwdE6pQwdE6pQwdE6pQwdE6pQwdE6pQSkpPiJzOa2hRCSUw5eVcNVlXP5xlR/cJiFW3XyJWItzYzpPVVvtWIHlchpHynOwIHN2+jc2M6T1Vb7ViB5XIaR8pzsCBzdvo3NjOk9VW+1YgeVyGkfKc7Agc3b6NzYzpPVVvtWIHlchpHynOwIHN2+jc2M6T1Vb7ViB5XIaR8pzsCBzdvo3NjOk9VW+1YgeVyGkfKc7Agc3b6NzYzpPVVvtWIHlchpHynOwIHN2+jc2M6T1Vb7ViB5XIaR8pzsCBzdvo3NjOk9VW+1YgeVyGkfKc7Agc3b6NzYzpPVVvtWIHlchpHynOwIHN2+jc2M6T1Vb7ViB5XIaR8pzsCBzdvo3NjOk9VW+1YgeVyGkfKc7Agc3b6NzYzpPVVvtWIHlchpHynOwIHN2+jc2M6T1Vb7ViB5XIaR8pzsCBzdvo3NjOk9VW+1YgeVyGkfKc7Agc3b6NzYzpPVVvtWIHlePRiYthk+JbpJFJhxDqeNCp/X0j5TnYEDm7fRubGdJ6qt9qxA8rxm4SCVQeeKdSy4Eg1LM1GfCZhL0G4aDKsuAxDxbdonUzzcXjIiVMm/SdsdElTcBn8Bg5et+QwcvW/IYOXrfkHmTgFKsazTPZa5vwGDl635DBy9b8hg5et+QwcvW/IYOXrfkMHL1vyGDl635DBy9b8hg5et+QYX4As7MindKtsZcXMMHL1vyGDl635DBy9b8hg5et+QwcvW/IYOXrfkCScAo50JVdfaSR8XOMHL1vyGDl635DBy9b8hg5et+QwcvW/IYOXrfkMHL1vyGDl635DBy9b8g294AuZa1JmsvFNzfaGDl635DBy9b8hg5et+QwcvW/IYOXrfkMHL1vyGDl635DBy9b8hg5et+Q8FRCKZOgapzXPu0j5TnYEDm7fRubGdJ6qt9qxA8rxoePQU7ZIsS+a3a6dhKEEalKtERCEhXfPQnbYzOfxpnUJWXEZTi92dAhe7OgQvdnQITmw0Z5BC92dAhe7OgQvdnQIXuzoEL3Z0CF7s6BC92dAhe7OgQvdnQIW2GrVW0IXuzoEL3Z0CF7s6BC92dAhe7OgQvdnQIW2Gj/2EL3Z0CF7s6BC92dAhe7OgQvdnQIXuzoEL3Z0CF7s6BC92dAhNYGpsghe7OgQvdnQIXuzoEL3Z0CF7s6BC92dAhe7OgQvdnQIXuzoEJ2mkIPjJM27SPlOdgQObt9G5sZ0nqq32rEDyvGNDqSWhVoyMUkE8xPwNrtfqLJDM0nfbcOc/X0j5TnYEDm7fRubGdJ6qt9qxA8rkNI+U52BA5u30bmxnSeqrfasQPK5DSPlOdgQObt9G5sZ0nqq32rEDyuQ0j5TnYEDm7fRubGdJ6qt9qxA8rkNI+U52BA5u30bmxnSeqrfasQPK5DSPlOdgQObt9G5sZ0nqq32rEDyuQ0j5TnYEDm7fRubGdJ6qt9qxA8rxlRDu2VUhHtGDV4W4wngSydGYEbj6oprhS6c/wCoaioc9o4X5evZHynOwIHN2+jc2M6T1Vb7ViB5XjQLiZ7GhaiVjOaboPZndnmceUpGK18/GbOQ0muIspUtqR7WY/kLgrUpFwVqUi4K1KQ+UMwqwk4qh5JPmzi4K1KRcFalIuCtSkXBWpSLgrUpFwVqUi4K1KRcFalIuCtSkQ9iYVTNHlPJJ86kfwmFwVqUi4K1KRcFalIuCtSkXBWpSLgrUpBFDsKo0ET+ST51EqX6zi4K1KRcFalIuCtSkXBWpSLgrUpFwVqUi4K1KRcFalIuCtSkNmTCrNTVS8knzZkzfEXBWpSLgrUpFwVqUi4K1KRcFalIuCtSkXBWpSLgrUpFwVqUijLbRohqB26CS227SPlOdgQObt9G5sZ0nqq32rEDyvGXDxSKbSytkDOTots0ey6RlN+QJUqRKVpL0GuH8QltpJIQkpkkXB69kfKc7Agc3b6NzYzpPVVvtWIHlchpHynOwIHN2+jc2M6T1Vb7ViB5XIaR8pzsCBzdvo3NjOk9VW+1YgeVyGkfKc7Agc3b6NzYzpPVVvtWIHlchpHynOwIHN2+jc2M6T1Vb7ViB5XIaR8pzsCBzdvo3NjOk9VW+1YgeVyGkfKc7Agc3b6NzYzpPVVvtWIHleP/AFUSyx94skieGebeLjQul6+kfKc7Agc3b6NzYzpPVVvtWIHleMXg9qIfOig+LjMG48tTi1Vmowl6EcU04XCRhqJUUznmuF9ovXsj5TnYEDm7fRubGdJ6qt9qxA8rxmIhlNLwYzpF9k//ADZQl8qLjqzdNPFP/wCeM3Dw75MKS6S6X4H+4wmn3hhNPvDCafeD7yZRSknFqURW7U5jCafeGE0+8MJp94YTT7wwmn3hhNPvDCafeGE0+8MJp94Q6SlFJWNuiddvbGfxGE0+8MJp94YTT7wwmn3hhNPvDCafeBKTKCU7RCeHgSRDCafeGE0+8MJp94YTT7wwmn3hhNPvDCafeGE0+8MJp94Ns/zFNJLilT7bho90YTT7wwmn3hhNPvDCafeGE0+8MJp94YTT7wwmn3hhNPvA4l+MJ9NA00be7SPlOdgQObt9G5sZ0nqq32rEDyvGmOoGug5DqOuwqmBONtKecKpTp0pvX0j5TnYEDm7fRubGdJ6qt9qxA8rkNI+U52BA5u30bmxnSeqrfasQPK5DSPlOdgQObt9G5sZ0nqq32rEDyuQ0j5TnYEDm7fRubGdJ6qt9qxA8rkNI+U52BA5u30bmxnSeqrfasQPK5DSPlOdgQObt9G5sZ0nqq32rEDyuQ0j5TnYEDm7fRubGdJ6qt9qxA8rkNI+U52BA5u30bmxnSeqrfasQPK5DSPlOdgQObt9G5sZ0nqq32rEDyuQ0j5TnYEDm7fRubGdJ6qt9qxA8rkNI+U52BA5u30bmxnSeqrfasQPK5DSPlOdgQObt9G5sZ0nqq32rEDyuQ0j5TnYEDm7fRucDJ7O2inoglJQXFMZfHfasQPK5DSPlOdgQObt9G5OPPKottpNSj4iIPy/GkdElUIVB+iX1+s++1YgeVyGkfKc7Agc3b6NyhpAgj2zxkqIUXol9W/yDUPDpotNlMkt9qxA8rx6EbFobX7NZ/oLJAvJeRxl6+kfKc7Agc3b6Nxei3rZNlaT7SuAg9K0ftouNOkSjKpP18N+KxA8rx4jwyez2Q6c/GPIz2GxHZuLm/X19I+U52BA5u30bi3JrR/0ECdKIPjV9WtITFaLfisQPK8enGwqHF+1Uf6CxwLCGU/Z4fX0j5TnYEDm7fRuCltn/AFTu0YLn4/wBE7fL23d/bfqsQPK5DSPlOdgQObt9G4ORy5zk6AOiwXApXH8fy38rEDyuQ0j5TnYEDm7fR47clwO2i47azFwI+f7hqFZ9EtsftK4T38rEDyvHWmS1JYYScyToko1c9sHBSgSbNNOhxNqf19I+U52BA5u30eM4/EKoNNJpKMRMvRyLodGGI7dEvq1+e/1YgeV461SWlL7CjnSVIkmnmtjw2UDST00yG0nPNz+vpHynOwIHN2+jxoeQII5pzskSriL6t6IbYZKi22kkpLf6sQPK5DSPlOdgQObt9HivRTtabSEn6SuAg5KUbtoyO25nNNMR2/n6gViB5XIaR8pzsCBzdvo8VMEkzOTpPOd37avq1+YmK0XqBWIHlePQjYtDa/ZrP9BZIF5LyOMvX0j5TnYEDm7fR4hkwf8AWRHk2SKvnP64Zg22ov6hzbu4+L1CrEDyvHiPDJ7PZDpz8Y8jPYbEdm4ub9fX0j5TnYEDm7fRsmpZklJWzMw7Kzqf6CEOhDEfCf1b9RKxA8rx6cbCocX7VR/oLHAsIZT9nh9fSPlOdgQObt9GyxI0BfUdaVbqR9fpOGYRmpsrZ8Z8fqJWIHlchpHynOwIHN2+jYdiYlVFtpNIxES/HF5WIUZMp9lNXy9RqxA8rkNI+U52BA5u30bEPIMKoyaSdOKUXR9cYQyykkNoKZJF6jViB5XIaR8pzsCBzdvoDsUqY1+a0k+FXAFRcZOcZGHZFmqub1IrEDyuQ0j5TnYEDm6OqCQnbSZJx7Y+Bavro9SqxA8rkNIxJKczU5a0A1CwZq8KfKwMTVlwT/XGEMWjeVtnT+16lUSRQQRqUpcxEXIb+HVuKJCExBmozOYiKkgPy1EJPwZg7HCpMvr/ANP1NMuoKXBQTEVRM6C1rL8/OIYLg9Iu+MFwekXfGC4PSLvjBcHpF3xguD0i74wXB6Rd8YLg9Iu+MFwekXfGC4PSLvjBcHpF3xguD0i74wXB6Rd8YLg9Iu+MFwekXfGC4PSLvjBcHpF3xguD0i74wXB6Rd8YLg9Iu+MFwekXfGC4PSLvjBcHpF3xguD0i74wXB6Rd8YLg9Iu+MFwekXfGC4PSLvjBcHpF3xguD0i74wXB6Rd8YLg9Iu+MFwekXfGC4PSLvjBcHpF3xguD0i74wXB6Rd8YLg9Iu+MFwekXfGC4PSLvjBcHpF3xguD0i74wXB6Rd8YLg9Iu+MFwekXfGC4PSLvjBcHpF3xguD0i74wXB6Rd8YLg9Iu+MFwekXfGC4PSLvjBcHpF3xguD0i74wXB6Rd8YLg9Iu+MFwekXfGC4PSLvjBcHpF3xguD0i74wXB6Rd8YLg9Iu+MFwekXfGC4PSLvjBcHpF3xguD0i74wXB6Rd8YLg9Iu+MFwekXfGC4PSLviFh4+TiaNE9FbadrbmrVOZcAahYcpkNlNjPj/wDoS+GdMhfDOmQvhnTIXwzpkDsLiXJq6JziY32iPLITNOoWfElU/iTuLSguNRzC+GdMhZLImx+1PaF8M6ZC+GdMhM28hZ8ytk0rebSZcBrF8M6ZC+GdMhfDOmQotvNrVxEsFZnEtz1UjmF8M6ZC+GdMhO2tKy5j2SsziW56qRzC+GdMhfDOmQnbWlZcx7M7q0oLjM5hfDOmQvhnTIJNbzaSVVOqsUW3m1K4iVszOuoQf2lTC+GdMhO0tKy4yOfYpxLiGkFWpapiFE5QanFKCiGn8hc4ZhXHSJ9+exp45q9k1OKJKS4TMXwzpkJifaM8stg1KMkkXCYvhnTIKUh1CiT5xkqoXwzpkL4Z0yEzbzaj5leIZKfbSZVkayF8M6ZC+GtMhORzl6pth+KhIZEO+ztvJlRIyxB5+PYsyyfoFtzK1MXFjF4/8y/3EzbC2Fe0l1XxEsQjttTTqCn46xGvohWW4hCDcJxCKJziAddV5F9pCjP7Cy+Hw8T+XtKmRDQ7kY9+CdqX1xiJio5onyQokISqqceDFDMlD/6VjKj+Q8MgWEw7iFkSqFojI+YQ0VFw1lecpTmaz9oy+AmbYWwftIdP4htbUUqMk9ZzETnRzBmKY8x1M+IOHEQyLKv+6kplYw/CyiiyIaaUc1Iytkoi4BeP/Mv9xMUGaecnV/uIRLClKh3m1mg1VlatkCTHQ7b5J82mmeYIgoedDDxomKfzZzF5T89lX+4pQL0RBu8CkrnCfDV/zKTzOYlnX+fAYTEQa6STrI60nxGCTHQ7b5J82mmeYIgoedDDxomKfzZzF5T89lX+4pQL0RBu8CkrnCfDV/zKTzOYlnX+fAYTEQa6STrI60nxGLHGMofRPPMtM4Yi4BuwpWugtBHanEPFRrCYl95NPb2yIsQSy/CMraSmigqHm4uIO+BLOeFe2i/3DcUzantLT7KuLY/rYVp+1MRqRbIRUG8iyQjCLKlJnXPNMX6/oLHCNIYb9lCaJCe05EuXJv4nzBMofxQ4txSrbcPPMSS+uAUWIZltP2UEDU0jwOKLzH2CoqIQzUquOPPtGpE61T2qBzbJtxDaXW1VpWU5GG4uARY4d06K0FUlQhIlEK04/wCktaaR0iP9NhSHEktCrRpO2RiTIWTmUQ64mclk2mYiLj6QqHhoZtLak0V7Xz8fGDjYJhMO42sqVC0RkfMExMcybzi1K9MymmxDaMOM5Dp/EG/IMe7Etp//AB3LfyMeDRSSh44vR4F4v22FnEQbVNc87iSoqn45xEwcoosqGELtUprZKIuAXlNkuK/cKif4ai321ptmzS87EFw8ZMUY0VKcvTLj9Uyh90H86V1U7FJaiSXGZh+IbRM8/Rshz10ahKP3CugSNHILbMw7aF5JpL49IhnlHO4krG5lFsKUs5kptmY/iCV3SmXGtu2OfgbSkyIRf3/ZLYiMtHWED/v66tiNp+iSTLHSIbaqzqo/psSj905/2J2YeJMicWxSsSyOqe0exAf4etsuw8Smm04UxkFwjyvIKcsTvOXoq2ID/D1tl2HiU02nCmMguEeV5BTlid5y9FWwxnSeqoSd9wno2P4ohYktqtxuY/ZPbWw5Dxs9gM6LpFwlwLIEtBkpJlORlw7EbmSekKWs5kpKczDkbE22GduST4vRLxJKlGGbpWMzQ9k8B+JEw3pqTtMrgEVJ7lr+4gv0P4bMoSgdtmFLwZn4/XPsRGWjrCHy19bZZlSC8nZF7Y08Dlc/1xBiJO6GVFzKLYlXId/7C2YlDPmWV6ebit+qZQ+6DzcZFNMOHEGoiWqa1RSMIw2sIJgpPes63XE0zTURTz7Eo/cK6BCwrnmuwTacW0IRcmRG1NVsi+2mv65tgoOGviOWTCPxrEZDteY1BLSWgYi/v+yWxEZaOsIWGjIqxvIpUk2NR+kZ8QtRhq5iZX+wRCSTDuMyfSncfdKYjDMIx5jZV8fPsSg5GPIYQaHEkazmt0yGEYbWEHFMRSIh+jtEN25zEDP7J9Y9iA/w9bxGHS/us28ZGIR5VbjKFn+JCA/w9bxGHS/us28ZGIR5VbjKFn+JBjOk9VQk77hPRsfxJ9612hZodP8AWMFtftp9kfyqMVbK2wZ9XYjcyT0iPWXC3R0jm+IjHpra3SR+Rf8A9bMylpTjMXVGkNoolYvETEp2rDi7J/tV53xE5HaETEzzLSiZGUdQhm1WnVFZHMo9iIy0dYQ+WvrbMXxoIll+BiPZ4ELSr8yPu7EpPR7thbOypI6JnbplxC/v+Ff7A2ZBYejotXmzN7UsYejJSVSjn6+GiX7+qZQ+6DzkbCtvOFEGkjUXBRSMHs/kExsnNWBTbiaaSOcjIz2JR+4V0CTc1a6pCHlFgjounZfxqUX1xhDjZ0kLKdJhxytiS26CfvFViUs1d6piL+/7JbERlo6wg3YiChnnFU51rZSZntzFFUC2jnRtegeGSNGOrgyPbNrt0MZCyEmg+3adRxfLYlBqNZS82SXFESuOmQwez+QdKFhih4ijtFIM68QgZ/ZPrHsQH+HreJBJ4SaM/wBRJ6VVlDNz6JCA/wAPW8SCTwk0Z/qJPSqsoZufRIMZ0nqqEnfcJ6Nj+JPvWu1sFKsnToQpc7lH0F+0CWqYolvavJ5+MRuZJ6RHl9lJ/kohEp4SiTP3U7NKNhWnlTUaSk25sY/lduwWeqe3Q87oBogWEMEddEq/ERFoLbwyttkn9EGKRzuseSX+FX6TCS5IK23S8IfL7JVfHZiMtHWEPlr62zKBq/05hKS+A7GXW2JURFMNvoInTouIJRT2QhtpOhvwaJIN+QHnYGJK2REs5j+JD+Vy5dqVBKzKY6Xsn6plD7oP50rqp2DQ8hLiDrSopyCTeWlBKUSUznWZ8AlH7hXQJNzVrqkFuJLykKdkLFw/XMHXXznVAEaT5y9H9g2t+3ERJm+6Z8ahKWau9UxF/f8AZLYiMtHWED/v66tiJbd8xbaiP8hENl5qoczP8DLYlH7pz/sTszIShlpFuYimIghxpRLbWU6TLhIQH+HreIUPDnO2SiZnL2S84+kElJTEVohAf4et4hQ8Oc7ZKJmcvZLzj6QSUlMRWiDGdJ6qhJ33CejY/iT71rtbC2X0kttZTKIwRpnXDn/yN/uIiIh1U2nIBCkn+IiIZVTrZo/MRknRO0Wuoj9tPB9cXiFlp/6vFdh3fMdSaVCKk2KOjTnTb9tP0YlSWVVPOWJnIL6LZiMtHWEPlr62yiDI/KRCpzL7JfOYNqcKZyJOyni4NiVch3/sLZN1m0s0IWeV9EC4PVEbTOakiiWMxEIn2xRJnN/tT+2wa3FEhJVmZzTCDhoQ6UFBmp0z9tRcIlA1cLVH87Qk9SDnospR+KbQUhZTpUUxkHZFpH4Op0rN9ptO2LYlFS6jYUnStfERrM+3J0lzcxl8thSDPbOuJJJfqIVKVTmg1krm2xnsPQkM4TkW6mhMk/MLnDkfEpoKfIibI/Z4wZqOYi4TEYojtOtOUOfbEez/ACiTVk5ExJ2NwyOeiR8GMIaR5qEkkhCba52GnzW59g1xDiGkF6S1TEDk/wDh2k++7tTdQXV/cG/FTKjXS232C4tiE21zsNPmtz7BriHENIL0lqmIHJ/8O0n33dqbqC6v7g34qZUa6W2+wXFsQrM+3U/SIuYiP9xAm2qei2SDxlsS20lReWVOm3XR/wDdlTKpieTtml+yoRrL6TQ42zRMj4NsWwUsyTPZEGSnSTWRl6QJJmTUYnz2viXNsk5Dqposk05czc2wuH8GJUI25QUufbY/EZjIacvCkzbX2ytfsIaFL+2gqWVw/rsukZzGtxJJ/OcMzH5q1kf57Cp3SiH+Bps5/wA+IfzWXCNMNaNKDLz+Yvsi0DNRzEXCYjXJ5rOhyhz7cj2DejXktJ5ztniCok2zTDEslL5kFUnH6oPgBeHSpGvEVRGaZugUmI+MaVxpURDaS1KicT4/qJSjnstc4ceh3XHFrTR281ogrwyUoxTdKcm500S/QH4DKkayR1kRpm/KbYXHkXl1tE0eIWrQIo6VY15JeiZpm/KYWWElCMZc9pBkQOHOMeNz/XmTS/YWSNlKMfVwUjK0DOFlKOYM+FtdETPyxKThfadnBOE0qIWVRvHP+lWw4TspRbbK/wC0gyJII0xkUlRcJTDaSzKacTwMn5WlF0j9t2cMRKX3lqZXSIlTTBJNRr8GRTz2Ga2DW7GxS1qOczMyMzFBMsSkSC9EnrQpxcRFxR/bcFGAh0Mz1mVZ/jsJJqNfgyKeewzWwa3Y2KWtRzmZmRmYoJliUiQXok9aFOLiIuKP7bgowEOhmesyrP8AHYJDMS5CqnnptzT4rYssXKEY+5xrURg/AZTjWSVWRGmboDbJyjFNElNFam5iNzGEuMxsW2tJzkpJkRkLG7FOxZz+c7NPsqj0FRecasa/tbNmQlUJEV2Rg6NsUYeXjWniehyV+ooytLL77R1tsoJojE0DDpbPhVWo/wAdhUUb6yZWumtmjw4/EhzfKewOk6jGWytCVqbUpJkSk1lzilHSnGvmVVIymL9Afgkpx7E/+m5RE0VKcoPJ4lOglNw1lc9p3bfLZcJ6U4xLKzuSDIk4gSkRkUlRVGUwo/zuVKPFZxZIp6KilfbcBMwjKWWy4El/9f8A/8QALRAAAQIDBgYDAQEBAQEAAAAAAQARITFRQWGh0fDxEFBxgZHBIGCxMEDhgJD/2gAIAQEAAT8h/wDo9Igd1dfKuvlXXyrr5V18q6+VdfKuvlXXyrr5V18q6+VdfKuvlXXyrr5V18q6+VdfKuvlXXyrr5V18q6+VdfKuvlXXyrr5V18q6+VdfKuvlXXyrr5V18q6+VdfKuvlXXyrr5V18q6+VdfKuvlXXyrr5V18q6+VdfKuvlXXyrr5V18q6+VdfKuvlXXyrr5V18q6+VdfKuvlXXyrr5V18q6+VdfKfkHlTlygwjMKqBTBLRW+rfVvq31b6t9W+rfVvq31b6t9W+rfVvq31b6t9W+rfVvq31b6t9W+rfVvq31b6t9W+rfVvq31b6t9W+rfVvq31b6t9W+rfVvq31b6t9W+rfVvq31b6t9W+rfVvq31b6t9W+rfVvq31b6t9W+poK4ESfJGqIQmG3NSUwaJnRlycoMzBOK28Uwrxh7uFpKFeADsxK1RzWqOa1RzWqOa1RzWqOa1RzWqOa1RzWqOa1RzWqOa1RzWqOa1RzWqOa1RzWqOa1RzWqOa1RzWqOa1RzWqOa1RzWqOa1RzWqOa1RzWqOa1RzWqOa1RzWqOa1RzWqOa1RzWqOa1RzWqOa1RzWqOa1RzWqOa1RzWqOa1RzWqOa1RzWqOa1RzWqOa1RzWqOa1RzWqOa1RzWqOa1RzWqOa1RzWqOa1RzWqOa1RzWqOaIl6A9rK+Zl2DlTxsyDMhYxY1AOTEgByoklenAciAnE2NagMSs8Gf0MljmAaKvg4UtZfY8gAYRRUhbJkBcmkeYiCEgkspkNDTjFcpQp9Dc51Ct/3awQJgGcwIJC3u5N7ZdMFB1yUNgIgxo3A1OFyE1GAAJD6G2HbVqeAk3Ao3fXhd3lcECYCAALOS+yOGAjQzcunMRiWcBabg2U2QI6re2J+hhaBOSSzKC4dmd51gkgG4AOzFMHEAH7/bkvsAEmSiISC7FQICawAjEmTCZJLMgt4IEqbPoh6gBwGaId0zc0CljXhNlfey7ryb2w4Qm1OygSWT2EWmvb6I0v+R3YRJuFWTb2Xu4mXc0QCmTADkvtgUQKoJiAS0UOiIMCTT6RQ4WTAU+hgglCzABMk2IiJELwhcqEs5kwAFgcc7zt9Y8l9k52AChlV6AeSaTKMTj5ghQwKTNfokZ4JGh1HsZWC0hRAgUQayeS+wPQBBje0UQZjUCJJJzKAGMZHWmr/ojkgGJPWFEz2DuQi3k1GyaLXkzPWM0EQWAkOSeyWmpUhBEfdybVBwFBbgufohahZUCJKmA9z3TYHmfDmCsNN5aHkvtlYQDaqrlUSaQEvKheK9ghILACA+iT0GAXUHZAm9hYQpMoQYp3mvJfZcWYVUNyogwFxewtC/4LSaCAWrUB7+iEZJ0+tpijn6sLUaxgyS8XibSXcmtUwYQAlyT2MhMAECNdxTNNgmSfWAEVZFdUafRBWCBtgQ6Y4Zi2bnFrmcYSYACTRhqtPJPbtNDluBRVXcm1NxY1EIn8+iiM8dCLtlx0+iRSW0Ys6Iz5L7I5Ywo/lziiAsOkaQP1AAGAYCX0SGTn98dHxFjs2x1B796cJm9r0A0g3JPcF4AIzWDe8IJKkNgg8ozlfVBRGAAAAC2pmtqZrama2pmtqZrama2pmtqZrama2pmtqZrama2pmtqZrama2pmtqZrama2pmtqZrama2pmtqZrama2pmtqZrama2pmtqZrama2pmtqZrama2pmtqZrama2pmtqZrama2pmtqZrama2pmtqZrama2pmtqZrama2pmtqZrama2pmtqZrama2pmtqZrama2pmtqZrama2pmtqZrama2pmtqZramaHAb4QQFimZ/E4hKZIEq1NEw7Oe5ssEbCbqa8l9kIBaBUVlLUmuvK1r6+ia666666666666666666666666666666666666666666666666666666666666666666jJAgIxyWiTAXuw7IhQugZcSCQESbVc2qHA8GPJveMLGvX0bWqprFPJveMLGvX0bWqprFPJveMLGvX0bWqprFPJveMLGvX0bWqprFPJveMLGvX0bWqprFPJveMLGvX0bWqprFPJveMLGvX0bWqprFPJveMLGvX0bWqprFPJveMLGvX0bWqprFPJveMLGvX0bWqprFPJveMLGvX0bWqprFPJveMLGvX0bWqprFPJveMLGvX0bWqprFPJveMLGvX0bWqprFPJveMLGvX0bWqprFPJveMLGvXzvUqrEq6/MHyOfa1VNYp5N7xhY16+RrBecCLQ6l/CLBJy4JKLlqbBoRahMM9s6RHYv8gigUgu4dk2Wmy02Whs0fEA4mduhbLTZabLTZabLTZabLTZabLQxACgGhgZ1W+62Wmy02Wmy02Wmy0Ic3Nggw9EC2Wmy02Wmy02Wmy02Wmy02WlikLQabv0PC2Wmy02Wmy02Wmy02Wmy02WhwAmtlIhIV/trVU1ink3vGFjXr5GnvQKSJd3cCoyZHc0UHx6FCDHk/JjxlwED9/h110XJYLkkh6/y666666666J2BQgdCD9L8fn111110TmxAASbt/LrrrrrrrronkSIEAHxd/LrrrrrrrrqEr2Zk3b+2tVTWKeTe8YWNevkJ4DO4I6Ize5yMPAChgoMmn0sHbn2tVTWKeTe8YWNevo2tVTWKeTe8YWNevo2tVTWKeTe8YWNevo2tVTWKeTe8YWNevo2tVTWKeTe8YWNevo2tVTWKeTe8YWNevo2tVTWKeTe8YWNevkNp8x02Q6TURURUbjiJ7qo7XSLiinZzxjMrQe/PdaqmsU8m94wsa9fJw404kDiACIHihKH6PkK3QgDGOLG/wCC220tS4QR3Gw/lbbbbbbbbaTCSSLzQPz7bbbbbSCD7+SCtttttttttBOptpXsT/LbbbbbbbbaSuJAp0GiI1/trVU1ink3vGFjXr5AMGAb9F6egJgUdwF/ARi4TtnyID8QJxhUAFnPdaqmsU8m94wsa9fRtaqmsU8m94wsa9fRtaqmsU8m94wsa9fRtaqmsU8m94wsa9fRtaqmsU8m94wsa9fRtaqmsU8m94wsa9fRtaqmsU8m94wsa9fNjiGkJReP7EGB59rVU1ink3vGFjXr5EONWMoGjqiCyd0JPVEYrBsmgBkiWTMGPfnutVTWKeTe8YWNevkYtD6cFz5DgASYByjXzQQLAAHgD3+R4DEgWIAWhoy2HMthzLYcyY5dWcFp3rYcy2HMthzLYcy2HMthzLYcy2HMthzIm6MZoxdz6ey2HMthzLYcy2HMthzLYcyBtgaGnMmdrP3Ww5lsOZbDmWw5lsOZbDmWw5lsOZbDmQPBK2xAQadjvK2HMthzLYcy2HMthzLYcy2HMthzLYcyLT7UAiSK9P7a1VNYp5N7xhY16+R0EEhEEIITV2IE9CCB2VTOZnRgMOfa1VNYp5N7xhY16+ja1VNYp5N7xhY16+ja1VNYp5N7xhY16+ja1VNYp5N7xhY16+ja1VNYp5N7xhY16+ja1VNYp5N7xhY16+ja1VNYp5N7xhY16+ja1VNYp5N7xhY16+ja1VNYp5N7xhY16+ja1VNYp5N7xhY16+ja1VNYp5N7xhY16+ja1VNYp5N7xhY16+ja1VNYp/mSKeIOAuYasaf68YWNevo2tVTWKf5QGDuSwJJbsgOBhhwANbQUmRf68YWNevo2tVTWKf5HZEHgIDEA/t/2pqY48L/9eMLGvXzD55wkXUASFZS8lkbxMc+1qqaxT/FreIxawDOZtsnYmtg7EBTZRzZJh/sYwsa9fP8ATbxRdRNyViq+DHn2tVTWKf4lfQLcAUCJ9vWYIZCACAAl/sxhY16+Yi3bRk3UkCU5oy5ATXmZ78+1qqaxT/BjuKKxL5tNk0iHYGaY5IOZgtDt/Sf9uMLGvX0bWqprFPzJY5kgcN7GoECLWdIs0y/3Ywsa9fRtaqmsU/NwY98QlgbXDoSZhSov3WyaOn+7GFjXr5kOfJvkiAejeUSkMxkmYIq1Kc+1qqaxT8nJgE2AakmbxIbE2ISkJmDxW/78YWNevmdx9jI2oAeqPQgc9MyPkMOfa1VNYp+RT4CigABwDUNatqTXtisAH+/GFjXr6NrVU1in4naBA7M/I/S1gJsReX5OeK/RxDkGMLGvX0bWqprFPxdFI2SwSxDdfEGJoZCACAAlyDGFjXr5h884SLqAJCspeSyN4mOfa1VNYp+BUzs0AmxewGy0jYwD9/0EOQ4wsa9fP9NvFF1E3JWKr4Mefa1VNYp4hkiSDACpNEekaB2Rxnk4Dw5FjCxr18xFu2jJupIEpzRlyAmvMz359rVU1iniXkkwiBHaJvILzgdNRAGrN8fLkWMLGvX0bWqprFPBx4hXAJoA9pMBUlkEfCFC0eA3oa8jxhY16+ja1VNYp4BmTOmFvgC9oJAWIMt8qAHI8YWNevo2tVTWKU2MBUORnELTcCprx2aUQDeYk9eSYwsa9fRtaqms0IJnYBi/j5Ia2Bm3kuMLGvX0YqQaAByS6MxhA8CABCRbENeFEWwgHi5CIBoGbkoYHLGxQ62eSSS0GEZmFfow/wAdYEUkmxSmRClIno5OTyY2E5BCMoDSYwYHBCot+jFSpUqVKlSpUqVKlSpUqVKlSpUqVKlSpUqVKlSpUqVKlSpUqVKlSpUqVKlSpUqVKlSpUqVKlSpUqVKlSpU6z3EREayl79TdtXNG2K8mP/oMkAOYD49dddQITIFnhFyGCxBAeiK56sS6w+Fgc2AcOgVg9zxceurnCDPGcj4IEfDrroCIEgiSiUxIF3nj11foARGHElMSBd549dX6AERhxc8ZYBA/fj10HITmEMuqnelYyfHEPM4cAMHfh0wYyzIH4FEqyC7lCBEqEkeQGRsCCbDOosQ7TGVyW3klDjMQY2A4dFwWCwAITjwHzJyRgOHQ3XODIG+kjx66uYGMn4Hb0wAQfPDoEMCkyAUMBEECC/KQGAOCIgoerABiJEEIf9ZE7lJHA9ocAZ8dBAoR5kIrAYiGYxA9wQUFyABkXLkCLxnVMKpDwQ38j8I6cTIDzuhHBIuORoDkkW2M96KSjMHMXstO5NWStgVx3aSAjPh6wAAALSQ9K4mpHYyFGEaRIFrwZ6EU7IqcoBtPEdi/hCNhNNcg4TIvdGOmsXM5MNp4BlpDeWJKfIbwBxBOyMJp+zkCT2djZIeE9rfGEGiLbXmgBBIgJnipxaSwgPeOIUD4omF1ug7ilqJ0goCkLDuE/ZyBJ7OxskPCe1vjCDRFtrzQAgkQEzxU4tJYQHvHEKB8UTC63QdxS1E6QUBSFh3Cl21HEFpxtiY3oYYtZgJBDykbpd5Z2y/SAkk01CTSMN1SZSvqIO4HUHDWxTOJTWIp5LjwDMSBAxBcZjso+oEzBFLSB5o17CSycqwtQ8yBaKDHETqugQjECT0d4wQkKgzBKN3hdJezP3jQhPclzHk6BNhd+/GUc7W0ZGcUNLRIbhriPDXo0ygkaEwQJexBms4AT4ysKEFQIxmARKISpsQqTgkSRkx9ZnVDochExmsAuZjZi+87eTAMQojAQiZP7KiQ5MQRcDE7A0TfaH9UcXEX8HiymkJExQiT1TknTSe/3itKCxE2gQ0de+YfYQnCwu9UAhxgsHWgsLs9keU4n64+yIAzYBQCsPjCIhkGBPB6e86LkPaBK/IkZLnqGPfgBoISpACaInqcCH9HYcZNUo4rEoBEFP8AoRhWEVRvZ/iUKf4iLN2BYwhw1F/iGG6/U70TOwBYXMB6EjhqL/EMN1+p3omdgCwuYD0JHx9vSjms2WBeM6oJYBhCRoHQkTTqszOAMXHDRaU8gymAmUB2rgAC3vPQ1+AyBFMIMP6EePgJncknQY4hijkzgX1ZOleNj1HeZE/724dUoWqVcW6GkjUA3lierkBvQCLIB8z7/FOyVhCEgsPLcpxP0gA5ykWD4HxwoGRZ4LcZiIkkCAv78HoTLsImLB7Fj2UzZGmRGHq3CTSHIoUfRod0Fdul4Bxk1ShUWHncaIISIT5M6RwTSIIWsuoBsDkwkn8IN0zme48GM7hUWznoeFA3QKksHMgI6kjJKTkvkngai/8AAIbM9RAfwR4US9+KhPtai/8AAIbM9RAfwR4US9+KhPv4e3tMok5zwQI2nVaL4WohZs+X8/sjuKcNFpRjGIfENAT8Q3DPE4EM8ALZeas4puf4GDSENukHaXshoAlFwUzbg8BiKKJzMnNj0DDtw1ShapVxGZDnejL4OO6PF2v2h/HCueasZoCbDwDFYgh4Ly1Dp3CGEfteKLmNpGbcpxP0nMypCAI3klb/AEcO5vCgdi7RIl8HnQ2oQmkQxQioAYEW0GIK6/xlbB0DjqB8HUmqUKSTJDBmQ8gjChnTCQAuHW3QIscAEP3RcIYBjAjaLzFuhF/ADBYnZm+J8rf6eZA2AGwdzEPOCEgIMQ+COBqL/wADhTGguP8AyVBWGhQo1F/4HCmNBcf+SoKw0KH4Ht7TKcAOgyQiuAuJx6ovzABZY6DmFotKIJmPJPpHPYk6HI4gILagMzCYCJ8lMkBMLwED+DpqDcs4Sc29/hEP/Ezj2RT4t5GMEWi1G9QI7NFYerB3HHVKFqlXGBQD5iQBiUEdMEen/XAMbiyQLsReU+s4bQy8alH93xOyJEJleCNjI0Bm83d+U4n64+5OwDMxeRvQ2ArU6YBeTZxedRP/AMlHo0UCbDgmLEPeA9E8Ta7Iwwbu/wAHUmqUcVh9iJdCSewIgvZnE+fiUIxCLEPMmgqg9AmnBIgrUX/gZSDCM0XyP8VQ1QYALAFqL/wMpBhGaL5H+KoaoMAFgHw9vaZTgOfPKiEWuOB4OGI6P0AyQaYILQ3woFJ0aMIdeCoojHwJ+DUafiKVxVcQ3tMb74FAO+vwiRS95b+MHjqlC1SrjBPtxbvovorPnrEEGHwAe/xTlQBhCwID8I3RBeJcoMYhYDaRggCB8UAsHF44DlW7MDqVRAUYDAbgSAOpR7gxQ6kzEoDACLWAf+J5BlcDMJm4WAyIcPUN3IQAEBAI6AAH1BuKCgD4K4D9cANr2jF35ihSguFqG8EeeBlPidPBiaC0hOLosgO5jbJdSzXC9BaRhIwAQesyQLvzA+OI+GFjCG70mooIvTABkCZjGF7lEHhM6gALuUYAfCE3EWicFlQywUMlTm0yc5OUCZjGF7lEHhM6gALuUYAfCE3EWicFlQywUMlTm0yc5OUQotbo5OFBHCyLIBHnPgd/ACsYzILVmPbjHWUrwG4yP/EZQC1ggcBtCImgDWAiO9pQWUTp9Wf48E8BJDMxwS8iJxB4DaQrcAsQErDD8+AqY4MBmJVBxIYwcYhIlE/I8WSwapyAUC3CEUMbeDinaJQuBYAye9Lujco+IYhgkKyo2xtJIAA0ACC0jCRgAmWQKAwiZ+AfHAbIgsAdEJk9E6sNZWwqAxJ5QLIEvE1GRrhgdAGI1OAnluwTxFJwHTUBAkw3yFEMb2w5kLWHhMgqIYEWTTM9qhMcygzVxB+EbfhcLv1l4CEkgUQgaJvEIADrYx70EByDmahhEIvHyNjF5N0STFFBcf0ANAXBTEaAke4CEcxCTc+QjS7eEz0AeQUgqWHtGlJyISKj1gBBIPVkVBICUH0hUwYhmfIQavJ9CVlhZB/QDwF7WkEjtVHeQLoqSyOCgw+DLoR/b8fFFLGME4rzieAf0A8Be1pBI7VR3kC6KksjgoMPgy6Ef2/HxRSxjBOK84ngEzngmQjYEbI6JIZ5NSUrpI+/R3I6gsT59KWY7BDswinkJkRcWgiiKsQgMIOAHlieMscCJAQQTeAG8U4xPNMBdMiTvbAoSC8ATN1kko/loHqFnJCJj8GxQUeBV5hRLkXIpBNjd/g4j9/TfvG2VAEiAOGcTQ0+BpdVhAOyvkJjyYKODzEP6ChNwSO8UIBg6spDgVOokCA9ER1dEYg5AkG4sidw95bwjq2mo9WD4qTavUc/+v8A/9oADAMBAAIAAwAAABAAAAAAAAAAAAAAAAAAAAAAAAAAAAAAAAAAAAAAAAAAAAAAAAAAAAAAAAAAAAAAAAAAAAAAAAAAAAAAAAAAAAAAAAAAAAAAAAAAAAAAAAAAAAAAAAAAAAAAAAAAAAAAAAAAAAAAAAAAAAAAAAAAAAAAAAAAAAAAAAAAAAAAAAAAAAAAAAAAAAwwwwwwwwwwwwwwwwwwwwwwwwwwwwwwwwwwAAAAAAAAAAAAAAAAAAAADTzzzzzzzzzzzzzzzzzzzzzzzzzzzzzzzzzwAAAAAAAAAAAAAAAAAASiAAAAAAAAAAAAAAAAAAAAAAAAAAAAAAAABDgAAAAAAAAAAAAAAAAAADAAAAAAAAAAAAAAAAAAAAAAAAAAAAAAAAARQAAAAAAAAAAAAAAAAAAjgAAAAAAAAAAAAAAAAAAAAAAAAAAAAAAAAAwgAAAAAAAAAAAAAAAAACgAAAAAAAAAAAAAAAAAAAAAAAAAAAAAAAABQgAAAAAAAAAAAAAAAABTAAAAAAAAAAAAAAAAAAAAAAAAAAAAAAAAAASQAAAAAAAAAAAAAAAAADBAAAAAAAAAAAAAAAAAAAAAAAAAAAAAAAAAAAAAAAAAAAAAAAAAAAADDgAAAAAAAAAAAAAAAAAAAAAAAAAAAAAAAABTgAAAAAAAAAAAAAAAAARwwwwwwwwwwwwwwwwwwwwwwwwwwwwwwwwwwDgAAAAAAAAAAAAAAAAAAzDDDDDDDDDDDDDDDDDDDDDDDDDDDDDDDDDDSgAAAAAAAAAAAAAAAAADwAAAAAAAAAAAAAAAAAAAAAAAAAAAAAAAAABSgAAAAAAAAAAAAAAAAADwAAAAAAAAAAAAAAAAAAAAAAAAAAAAAAAAABSgAAAAAAAAAAAAAAAAADwAAAAAAAAAAAAAAAAAAAAAAAAAAAAAAAAABSgAAAAAAAAAAAAAAAAADwAAAAAAAAAAAAAAAAAAAAAAAAAAAAAAAAABSgAAAAAAAAAAAAAAAAADwAAAAAAAAAAAAAAAAAAAAAAAAAAAAAAAAABSgAAAAAAAAAAAAAAAAADwAAAAAAAAAAAAAAAAAAAAAAAAAAAAAAAAABSgAAAAAAAAAAAAAAAAADwAAAAAAAAAAAAAAAAAAAAAAAAAAAAAAAAABSgAAAAAAAAAAAAAAAAADwAAQAgAAQwwwwwwwwwwwwwwwwwwwwAAAAABSgAAAAAAAAAAAAAAAAADwAAQAAAAACAAAACAAAAAAAAAAAABAAAAAABSgAAAAAAAAAAAAAAAAADwAAAAAAAAAAAAAAAAAAAAAAAAAAAAAAAAABSgAAAAAAAAAAAAAAAAADwAAAAAAAAAAAAAAAAAAAAAAAAAAAAAAAAABSgAAAAAAAAAAAAAAAAADwAAAAAAAAAAAAAAAAAAAAAAAAAAAAAAAAABSgAAAAAAAAAAAAAAAAADwABBCAAAAAAAAAAAAAQAAAAQAAAAAAAAAABSgAAAAAAAAAAAAAAAAADwABDCAAAAAAAAAAAAAAAAAAAAAAAAAAAAABSgAAAAAAAAAAAAAAAAADwAAAAAAAAAAAAAAAAAAAAAAAAAAAAAAAAABSgAAAAAAAAAAAAAAAAADwAAAAAAAAAAAAAAAAAAAAAAAAAAAAAAAAABSgAAAAAAAAAAAAAAAAADwAAAQAAAAAAAAAAAAAAAAAAAAAAAAAAAAABSgAAAAAAAAAAAAAAAAADwAAQSgAAQwwwwwwwwwwwwwwwwwwwwAAAAABSgAAAAAAAAAAAAAAAAADwAACAAAAAAAAAAAAAAAAAAAAAAAAAAAAAABSgAAAAAAAAAAAAAAAAADwAAAAAAAAAAAAAAAAAAAAAAAAAAAAAAAAABSgAAAAAAAAAAAAAAAAADwAAAAAAAAAAAAAAAAAAAAAAAAAAAAAAAAABSgAAAAAAAAAAAAAAAAADwAAAAAAAAAAAAAAAAAAAAAAAAAAAAAAAAABSgAAAAAAAAAAAAAAAAADwAAAAAAAAAAAAAAAAAAAAAAAAAAAAAAAAABSgAAAAAAAAAAAAAAAAADwAAAAAAAAAAAAAAAAAAAAAAAAAAAAAAAAABSgAAAAAAAAAAAAAAAAADwAAAAAAAAAAAAAAAAAAAAAAAAAAAAAAAAABSgAAABgAAAAAAAAAAAADwAAAgAAAAAAAAAAAAAAAAAAAAAAAAAAAAABSgAAACAAAAAAAAAAAAADwAABQAAAAAAAAAAAAAAAAAAAAAAAAAAAAABSgAAAgAAAAAAAAAAAAADwAAAAAAAAAAAAAAAAAAAAAAAAAAAAAAAAABSgAAAAAAAAAAAAAAAAADwAADQAAAAAAAAAAAAAAAAAAAAAAAAAAAAABSgADQAAAAAAAAAAAAAADwAAAAAAAAAAAAAAAAAAAAAAAAAAAAAAAAABSgBQAAAAAAAAAAAAAAADwAACQAAAAAAAAAAAAAAAAAAAAAAAAAAAAABSgRgAAAAAAAAAAAAAAADwAABAAAAAAAAAAAAAAAAAAAAAAAAAAAAAABShiAAAAAAAAAAAAAAAADwAAAAAAAAAAAAAAAAAAAAAAAAAAAAAAAAABSggAAAAAAAAAAAAAAAADwAAAAAAAAAAAAAAAAAAAAAAAAAAAAAAAAABTwAAAAAAAAAAAAAAAAAAQAAAAAAAAAAAAAAAAAAAAAAAAAAAAAAAAABAAAAAAAAAAAAAAAAAAAAAAAAAAAAAAAAAAAAAAAAAAAAAAAAAAAAAAAAAAAAAAAAAAAAAAAAAAAAAAAAAAAAAAAQAAAAAAgAQAAQAAAAQAAgwgAggggAAQQAAAAAAAAAAAAAAAAAAAAAjRgwARCiCSABgQBgQACQBRiBQCQBBAARghAAAAAAAAAAAAAAAAAAAACzwDgDwDzRTiigBCgBAAARQwCAgBCgABAhzgAAAAAAAAAAAAAAAAAAACBCTRjQChxwDSAiiAiggRBBQAQQCSAAAiSgQAAAAAAAAAAAAAAAAAAAAACCACABDDDDCABCAAACABACDBAAACDDBCDAAAAAAAAAAAAAAAAAAAAAAAAAAAAAAAAAAAAAAAAAAAAAAAAAAAAAAAAAAAAAAAAAAAAAAAAAAAAAAAAAAAAAAAAAAAAAAAAAAAAAAAAAAAAAAAAAD//xAAUEQEAAAAAAAAAAAAAAAAAAACw/9oACAEDAQE/EEP/AP/EABQRAQAAAAAAAAAAAAAAAAAAALD/2gAIAQIBAT8QQ/8A/8QALRAAAQMDAwMFAAIDAQEBAAAAAQARITFR8EFhwRBgcSBQgZGhQLEw0eHxgJD/2gAIAQEAAT8Q/wD0eKSXYhSlKUpSlKUpSlKUpSlKUpSlKUpSlKUpSlKUpSlKUpSlKUpSlKUpSlKUpQjJgfB7QACgJ0bGdiKUpSlKUpSlKUpSlKUpSlKUpSlKUpSlKUpSlKUpSlKUpSlKUpSlKUpSlKRMSNcF9AAA70AkslEQDiFIZlxJtR3s4JQILaYxC+g7mIBxjTn8bwOw5pppppppppppppppppppppppppppppppppppppppppppppppppppppppppppppppppmcUAZjezO1YYgqOGzlEY2RcWtfZnmQEEBSQkLrodoEATEoqPLTodd3jsMZTgDiKCEV6tmbdhzVAqF9pLBWTuWf2YtN6KpkCkj9ZLYDiEGgEdhmRwzh6DYPMq1Sd0P7SvLo/wC+zaxAiIUeloCDLM1DIaEZ4deAuwwH1lkAS9aQFDGLMjmAFQ8l220BAGwgAIWxLmAD2XWVUIGvRGImKtjU1AUm91U/a7DPoY3gCSSdAm1PSRCUj2EBCiIQsCwpIP8AgPHsushTAHQMzQg7ameGgIACxN7eF8a/+diBEDeZvEeokDJ0mIsdLtXezQ1iCAAhsaQKHrT+sfsdhgeJuDWEDteUNICy6lByF+moYACyBXARwA9l1iRIBq6A+hmNT8x4faA5HDwwdhtQfdqJIUACqeguLB4l+toQO8g8QBrBcPA9l1hPuCNepQjvYBoSigD0lzVrnv2I+fziAPlx86ISENqmaubVPHz7LrOjMIGSkxaDnOEIIoS0RZ2H9u7EPIEGINOwrdBZJSpLELJoQUgUsdgQ3smsAWIcJQ9dwRnfZgqwf9B57ENkPthrnYAErzkH4Jvkq+jQKC6HW5VXd/ZdY2SQlqgDFi5FwKAF2OANB2JQcX2bhHUFC3yVAowxUBOqvsrWJ2D0odhQTG3VIKAAPXDa3Lc9ibSMk/MCCwlFJDWdNWsTeNuqQBjATB7JrPGAHVlM6FSe6AZWP6xbYdiOZhyYYcm+lAmaHjgatUSO7jQB0GPX1Xd/ZNZYJ0L5EQEYm4JOiSWPq1f+S/Yo0YFvBW4Zc1+Qtg5Exl/Y6/8AHsusNeiI1VAVwdDwuav+hQyFADsQZRoswgGfGhphLm4Ixic32ZL7CABAAFPZNZqA7If+RlDV0iXYanYgeyzoHTp06dOnTp06dOnTp06dOnTp06dOnTp06dOnTp06dOnTp06dOnTp06dOnTp06dOnTp06dOnTp06dOnGro4/tMh/QDoMDYCSYFUzy2jNwj5D6mNSAsN36xbkz7LrPqJREDY7dA/oVFCxHhYjwsR4WI8LEeFiPCxHhYjwsR4WI8LEeFiPCxHhYjwsR4WI8LEeFiPCxHhYjwsR4WI8LEeFiPCxHhYjwsR4WI8LEeFiPCxHhYjwsR4WI8LEeFiPCxHhYjwsR4WI8LEeFiPCxHhYjwsR4WI8LEeFiPCxHhYjwsR4WI8LEeFiPCxHhYjwsR4WI8LEeFiPCxHhYjwsR4WI8LEeFiPCxHhVuk0eEaugSg9OMTlcLFkMAWIclAo8NsP7N3s+tWYt3dpQ9asxbu7Sh61Zi3d2lD1qzFu7tKHrVmLd3aUPWrMW7u0oetWYt3dpQ9asxbu7Sh61Zi3d2lD1qzFu7tKHrVmLd3aUPWrMW7u0oetWYt3dpQ9asxbu7Sh61Zi3d2lD1qzFvXNP+JoCQcYqE35G7mpQ9asxb1YHHsfHEilYl53BFcSaoFAp/q/gi0TKR/wBFofHqMTdAEU8F8d/QnTp3Nn0AWqH8EnTp06dOnTpz2AtIAnTp06dO1S3sRAS3+JOnTp06dOnTl2bUbeXGA/4k6dOnTp06dO1YH0IFgPdrSh61Zi3qt++qTNzZn8dBI2uQcsAClRccv9fRR8eod89c0bVKzPhZnwsz4TxvXwTUnCzPhZnwsz4WZ8LM+FmfCzPhZnwsz4QgTDREwsNAcj8lmfCzPhZnwsz4WZ8LM+E4TxJAYBhRQABZnwsz4WZ8LM+FmfCzPhZnwsz4WZ8IAMxTJxUi6H0FmfCzPhZnwsz4WZ8LM+FmfCzPhZnwvynoscPdqUPWrMW9VlTEJ7QkvxsJOM48L/UF7LHwh3NSh61Zi3d2lD1qzFu7tKHrVmLd3aUPWrMW7u0oetWYt3dpQ9asxbu7Sh61Zi3qjx0HSMfoAidkap+GP4PzChwMQPrSU/JR28jnDLb4AR3LSh61Zi3qgrc4CCYydObqOg2jdI2feomcGrYRplusd4WO8LHeEJAg05UmTQsd4WO8LHeFjvCx3hY7wsd4WO8LHeFSGDJHBohQsd4WO8LHeFjvCx3hY7wieacdDjyO7Ysd4WO8LHeFjvCx3hY7wsd4WO8LHeEJ4GOEoGbi+FjvCx3hY7wsd4WO8LHeFjvCx3hY7wqX64x8Ne7aUPWrMW9UEP6/omgaFSfWFNZSBptExnYsA8I2beJBABbuWlD1qzFu7tKHrVmLd3aUPWrMW7u0oetWYt3dpQ9asxbu7Sh61Zi3d2lD1qzFvXB6oVb6lWal9qG7mpQ9asxb1SGgowEPHnDgDdXTRO34knIoppsdCNimUE5hhDYl3LKUPWrMW9UzSKDcACEbO9j0GCiUAUKA9STt4z1Cghlata4H0AgQIXA0o4X/ABAIECBAgQIECcdB100HrAgQIECBD+XzPBjUP/EBAgQIECBAgSicHdN8h/xQgQIECBAgQI/SneBV5t7tpQ9asxb1WGqngEWK8uqgM+vgUkyRpXAIJ7mUoetWYt3dpQ9asxbu7Sh61Zi3d2lD1qzFu7tKHrVmLd3aUPWrMW7u0oetWYt3dpQ9asxbu7Sh61Zi3d2lD1qzFu7tKHrVmLd3aUPWrMW7S0ocJ3rM3R1YhD5L+YrMW7R0ob1uuFZGOSwoEp926XYiNDzOwMYfzFZi3aOlDIvIAtHuQwDACjDJMlufGBqWpJck3P8AMVmLeuaFRAHnUIPKPhYZ2bRJNiOyKUMGhIXWaQYhCIFj0IQMtYmnhmZo/wDNVmLev/uqfwsvtXH9NotvLsilDJ2S4qsxIsggkoJhbpiAWH81WYt64UPgBwoAg8vVGtU7tw0vl2PSh6FCBQak4CgSeVcQl3WkkfzgrMW7O0oYilAAEklBEyCQah8DUAP56KzFuztKGARgmCynuK7RCCCOAeYhn+U0GjBp/PVmLeuM9bUwWgAaAgNUbR57DMfAkILAxRfsSlDF+AwcBvA1OgCSSwTafZEBKTAox7BAKzFvXJMfhiPKAEMB+EyLFiAWFwSzDlXfsWlDDHVZsM4BwAgmwgCgXQKNGHz/AO+wKzFuzNKG0m2U/NRnUENSHKu7lrWDAPPYAQ6ewqzFuzNKHChhB6IgH0qyFlYW6YgFh7CrMW9c0KiAPOoQeUfCwzs2iSbEdh0oZpUsLAgBgxGlVhiUxjjVkfC8wTr7ErMW9f8A3VP4WX2rj+m0W3l2FShhbPNGhyRQLpgFGA01lgXqMJJ+9jqzFvXCh8AOFAEHl6o1qnduGl8uwqUMp4oDkeYoBNBmEEI7QAJZXkj7GrMW7J0oYrcNoNWAJgE8DUiTBuNCDwOoYIzsYv7IVmLdk6UODWDZA1gxbbBxUMICmDMAPZFZi3ZGlD1iXkBy7IgWi8dA/bSOMusvHdbfZVZi3ZGlBrGel0jBwLWDQ0fZlZi3Y13PFomgBV0B8PA0cgwgLC70OCRZwRLMgBEAeH19lLvXA2AED0DIMFzsY8/ewOYsAAd7IecG6oJu2hwNDnRhvswIqiDLszKnm4Z3nsZGjRo0aNGjRo0aNGjRo0aNGjRo0aNGjRo0aNGjRo0aNGjRo0aNGjRo0aNGjRo0aNGjRo0aNGjRo0aNGjRhkJkt3dBsMOksQAgsBthLgvP/ANBkRQCpdZnysz5WZ8rM+V5kSfo7ooU0b18EVJygJcHgQCHAqU9BO/NRFnMLM+UXiWoa9tbVWZ8rM+VM9K7/AA9TVSbzHglZnysz5WZ8rQn2XbAoUbFPs7OmoWZ8rM+Uf/8AcOuoUbFPs7OmoWZ8rM+Uf/8AcOuod8dc0fVCzPlZnymKCn9wiUDROJBX+Bfq4hRLNwdRZnyiZ5DtwcQ9On6DcL2xdRoJf5uZ+kJD7vvxi/yTILDidgxgAPLOx6t1WIic0kwNB8rM+U4b18DQBugjIQSHck0WZ8qsB1DBcxRcssz5WZ8oNM0AzfAPo2+1qqINSzPlAMcyIk+HTrRTMPj2kc44JAPwoEgVDhuUkkMHZodHVe5Gp7Xk6vp0OLbQCzXb8ZClp2M7T0hW6lyowm6VMMvlKO0aCf8Au2+16EZFowgmuLgdkot5V2avWiRof0efm33HXkvLci6SMzfGCuzX4Jl9EGMHGDR6qF5ghsEyl8h4mkhhBdsZMp3kyw7gH3ABQ+G5MRtB0mlDGEM24cmEjM9bdDjUnQsH1vxMrqdINPoHOEBFQ5FYx/ynN8jEOyyEpQZLoS4sDLL1TKxjPuQx/hMwD9zw/pUDZ8OXeTtqDO3gicmwB1ellxsdQFCsY/5Tm+RiHZZCUoMl0JcWBll6plYxn3IY/wAJmAfueH9KgbPhy7ydtQZ28ETk2AOr0suNjqAoWCYg1SAFkMBqldGhmQL4vLSMgaKJR+DAXh/fwkCXJRQQCRihmIB9tJEcQIz1o0GU0ApBA9UYH/sEtQdAso5XNKf5BBHhVxJG7iVTdd5BBSL+KwZRKOcHJZgkV1AT5KBqiTrmgk0nYm6QNa7Ivuwl0Pt5KFwh0sbhGS5wYAlrQj/t1PFMATBAHERADNlJ9CFQLRjFCOwAgQWls0IQsHdDErgZGDAEbJkxNXidjxYPNDsWfyC5DQGqq6G7a7QyxAGDUTCCHrGGKiVZxl0RLFj0G8FPswOtO+8byycvQkzFwyYSWkugCxXLultzLu3dGGNIJ4BAxonqyPaHMn9NPyEC6MKAsDrNAGrMN8VlIAGgQ1B7Rh79WtgQ7cLyTRELDw+yQYCgDeiwd6lp3OKtmUu+Tq6o7nS9Jj0bOR2ZNLhstgzQl3vUqFvlRTtIYI+w+UCHtH4b08U/ApokPWHSdvPT8vVnCrC1B1B0AsRUCHQxUgImW9hf3Lp+XqzhVhag6g6AWIqBDoYqQETLewv7l114O3oKpAhxPPz7gYRx41QsDVgX+A0BEKaKmEEEEGvX6M4YGg7k2YI7s6xH/wA+b0II0VsrbMtfVs9AIibTDgB2JGlhDrEQCB+TdTo+YkQUWT5+pWvqChSMVwPtq0D5BqKOmJoNv/MosPposR3xyUUAb29pw90MEzK0YQdH6QZgMj6xqDyRJqdGDvTZ8iSEe7Juj41r913T6DODo+Sn5SssnuoJLoO5r8+hUL83/wBXHXOg6orE+gE/W/Vs59vcBNUmEmhPw7i0um1KT89AMKznMC8Y3x0GGqBe2KiYDkmggEoVYauDnpfl9DjBPl4KhBCWFRcafl9DjBPl4KhBCWFRcfRrwdvWOBtELyBjrhHoY8yaCBJ/H/GB1+n1viMIFB0BqRICP199dLJh1rz0JBTt4t+vQ1rjsEpb0kWFA8Vj4EXBshghyOv9WI+AUSbJd62N2Hf1BQo3FwCSSw7zPtH6CGTzngLtpR328dDgqCMmkFnmbUzBeonalAjG8jEmUIh59pw90Z+ZGE/F18rNOVUEmjJS6Lczxr0wd/SUPIWWu/OClKNDmR2GzFCTzxomOsslsVb0ylQpNVQNAc8mAPATleDB7kCQnz+oSCMyAGGrykA8+esCcP8AlEioZya75vAA82EmacqHzN0QyowWCZCKsFWBj0vy+huYLPigD9qGeSKaDwX5fQ3MFnxQB+1DPJFNB4dNeDt9EcV0WmpFp9LxoPWxW6yNskWNjp9OQaN31Rohps4/v1Y7KFLLLUEr9iLxcZGRU5ruayjiXIXjx1drn5ehjqdgSWvMz2wmowzUCa3JOWpQj4CPYN4D/f6woUoAZGPMIMhtUJdP9PvoGlOwAglAFgPuUOYcNK+Mt0OWzHG/U6uARxQlHVGVQwZM0D2jD36tZwviOMB4iwA+Qj2gYFWNWIAWDv6SgE6NxJD9T9ahYF2TvsIdZk+jZLGuPWSlQt5JjSmwE6JhAfUAr8/0opqbdxMtgwKl5TEIPz2J1BBBX5fQysFWYaXVgQLop1GmCYBfl9DKwVZhpdWBAuinUaYJgOmvB2+iOOHwTl6KT5qWrnSP4aHSaa80lq6kKEVBRUP/AGt6Duh9NCTa15R/wjDO2G5V8RG9yAYgIGzBcwAa+qi7ejg4Mz4AesgoUIoh3Q6k/ndkPkdEYG/BOj/TRuUn5JvLH0RzKAL6jb2gY6NUGgA1Ll/gnRFF3HyHeAn7XRtJb2qE0Aiex71Lvn3V3UIKM8kRvyVsZekB5dRnDA0HYmzFNHX9+qRYkBAQDRk9XXCzm/iLXClZubefyv0G7kaZlAGwrpDZVfWlFELd/wBAYMMZ0w1W4ChMJ6qIlq/9p0IBCy2AqSTSNUFaKWQwF3ny6jgwmDhvF12h2pCGIwfbh+BHiM9k0K+Yen7xXgCAKBeDAC4LgglCQCavXfKFJwAI6A8RnsmhXzD0/eK8AQBQLwYAXBcEEoSATV675QpOABHQSLGSYreVitdu78aFn02ro4bWw7/+k0I9QBEAWQCCV/MY1BDnzsxf32fo7jEY3sdDHiqTMd+tjWsJatJ6gBgpCSUUFfYdDSC+b7PwFgpI19BjCTnBAsPnSolzXoT5hPz1FeLxpvD7fwghhtXjm7JQgDkVX1Haa7Df4CRPDMmXM0PssdCFxAJgAGZAIWWwFSSaRqtc/nUQIu96DKfHwj/VSEjXc20aCFa9EPaDmUIG1G6KG+zJ3Cid2TEEnhU7tldSnf5Kq3wP752qUJd09BRBqpKdMurOADSMBkhAWbcw2nUs/Qn4aE3e86PhRVpsBAmiE4meDsutQ6AacuIJqWkoYR+bHwTrP4/tAwFjOjWFpUFoUpiKOHcpkEwtxZvJCZoSu2kEOJIAAA2yggIRVAY1oXDVEbzZKiAior/lHHwjY7jILMQRSpsbZ3s+oroidxwHxOeAxYkKkWRwYNSHkvqh3+DNhgBEGiER7o8bOFmY4EYTR58x6E7jgPic8BixIVIsjgwakPJfVDv8GbDACINEIj3R42cLMxwIwmjz5j0FU2ErAaELgwHggTpAKHmLxkWBkqi4+RQlTO7KmAqAQR5UGKw4W/5o8AnlurAcOepRIuXLydYC0cW42F+o2OumzayKLeMBLqKDT2y5UKFhF/R/MlEw1iHZ2Y2dtukI/IhudVNViw9AvIrAJH4lm3VqGpxKw5JDHBDp3Uhzjy3FATrPE87LM7J4T6BBmfNojk9BOkbjhY9AAADbdLa0sqQPn1ozs9P1CCKgMDOgoEnQxGAxBDv01UnAG8Pc67hn/wCv/wD/2Q==;" vertex="1" parent="1">
          <mxGeometry x="50" y="30" width="156.09" height="160" as="geometry" />
        </mxCell>
        <mxCell id="NefAcdebUp0YX1UbjI-h-4" value="&lt;h1 style=&quot;margin-top: 0px;&quot;&gt;query&lt;/h1&gt;&lt;div&gt;&quot;...hjdfj uhjdf fjsh...&quot;&lt;/div&gt;" style="text;html=1;whiteSpace=wrap;overflow=hidden;rounded=0;" vertex="1" parent="1">
          <mxGeometry x="560" y="50" width="140" height="60" as="geometry" />
        </mxCell>
        <mxCell id="NefAcdebUp0YX1UbjI-h-6" value="" style="curved=1;endArrow=classic;html=1;rounded=0;" edge="1" parent="1">
          <mxGeometry width="50" height="50" relative="1" as="geometry">
            <mxPoint x="210" y="110" as="sourcePoint" />
            <mxPoint x="290" y="180" as="targetPoint" />
            <Array as="points">
              <mxPoint x="250" y="160" />
            </Array>
          </mxGeometry>
        </mxCell>
        <mxCell id="NefAcdebUp0YX1UbjI-h-7" value="" style="curved=1;endArrow=classic;html=1;rounded=0;" edge="1" parent="1">
          <mxGeometry width="50" height="50" relative="1" as="geometry">
            <mxPoint x="600" y="140" as="sourcePoint" />
            <mxPoint x="470" y="190" as="targetPoint" />
            <Array as="points">
              <mxPoint x="540" y="180" />
            </Array>
          </mxGeometry>
        </mxCell>
        <mxCell id="NefAcdebUp0YX1UbjI-h-8" value="" style="shape=flexArrow;endArrow=classic;html=1;rounded=0;" edge="1" parent="1">
          <mxGeometry width="50" height="50" relative="1" as="geometry">
            <mxPoint x="370" y="290" as="sourcePoint" />
            <mxPoint x="370" y="340" as="targetPoint" />
          </mxGeometry>
        </mxCell>
        <mxCell id="NefAcdebUp0YX1UbjI-h-10" value="k= len([[...],[...],...])&amp;nbsp;" style="text;strokeColor=none;fillColor=none;html=1;fontSize=24;fontStyle=1;verticalAlign=middle;align=center;" vertex="1" parent="1">
          <mxGeometry x="245.59" y="340" width="270" height="50" as="geometry" />
        </mxCell>
      </root>
    </mxGraphModel>
  </diagram>
</mxfile>
